<?xml version="1.0" encoding="utf-8"?>
<!-- Generator: Adobe Illustrator 24.1.3, SVG Export Plug-In . SVG Version: 6.00 Build 0)  -->
<svg version="1.1" id="Layer_1" xmlns="http://www.w3.org/2000/svg" xmlns:xlink="http://www.w3.org/1999/xlink" x="0px" y="0px"
	 viewBox="0 0 404 607.3" style="enable-background:new 0 0 404 607.3;" xml:space="preserve">
<style type="text/css">
	.st0{fill:#EBEBEC;}
	.st1{opacity:0.8;fill:#F8C432;enable-background:new    ;}
	.st2{fill:none;stroke:#3E3A39;stroke-width:1.12;stroke-miterlimit:10;}
	.st3{font-family:'NotoSans-Bold';}
	.st4{font-size:56px;}
	.st5{letter-spacing:1;}
	.st6{font-family:'NotoSansCJKtc-Light-B5pc-H';}
	.st7{font-size:25.14px;}
	.st8{font-family:'NotoSansCJKtc-Regular-B5pc-H';}
	.st9{font-size:20px;}
</style>
<polygon class="st0" points="394.8,0 11.5,50.3 18.6,338.4 396.4,302 "/>
<g id="Layer_2_1_">
	<g id="設計">
		<polygon class="st1" points="394.8,16.7 11.5,52.7 18.6,326.3 396.4,340.7 		"/>
		<polyline class="st2" points="368.5,125.3 341.3,0.7 130.5,66.7 		"/>
		<polyline class="st2" points="62.6,317.7 68.7,343 403.3,285 387.9,214.3 		"/>
		<text transform="matrix(1 0 0 1 1 129.32)" class="st3 st4 st5">MEDIA </text>
		<text transform="matrix(1 0 0 1 1 190.95)" class="st3 st4 st5">PURCHASING</text>
		<text transform="matrix(1 0 0 1 1 252.58)" class="st3 st4 st5">&amp;EXECUTION</text>
		<text transform="matrix(1 0 0 1 0 300.38)" class="st6 st7">媒體採購與購買執行</text>
		<text transform="matrix(1 0 0 1 162.6 376.36)" class="st8 st9">．GOOGLE &amp; YOUTUBE</text>
		<text transform="matrix(1 0 0 1 114.48 406.36)" class="st8 st9">．FACEBOOK &amp;  INSTAGRAM</text>
		<text transform="matrix(1 0 0 1 259.66 436.36)" class="st8 st9">．LINE (LAP)</text>
		<text transform="matrix(1 0 0 1 216.18 466.36)" class="st8 st9">．聯播及影音廣告</text>
		<text transform="matrix(1 0 0 1 216.18 496.36)" class="st8 st9">．廣編及新聞廣告</text>
		<text transform="matrix(1 0 0 1 256.18 526.36)" class="st8 st9">．關鍵字廣告</text>
		<text transform="matrix(1 0 0 1 116.18 556.36)" class="st8 st9">．媒體策略、成效優化及追蹤</text>
	</g>
</g>
</svg>
