<?xml version="1.0" encoding="utf-8"?>
<!-- Generator: Adobe Illustrator 24.1.3, SVG Export Plug-In . SVG Version: 6.00 Build 0)  -->
<svg version="1.1" id="Layer_1" xmlns="http://www.w3.org/2000/svg" xmlns:xlink="http://www.w3.org/1999/xlink" x="0px" y="0px"
	 viewBox="0 0 453.5 413.9" style="enable-background:new 0 0 453.5 413.9;" xml:space="preserve">
<style type="text/css">
	.st0{fill:#EBEBEC;}
	.st1{opacity:0.8;fill:#F8C432;enable-background:new    ;}
	.st2{fill:none;stroke:#3E3A39;stroke-width:1.1;stroke-miterlimit:10;}
	.st3{font-family:'NotoSansCJKtc-Bold-B5pc-H';}
	.st4{font-size:56px;}
	.st5{letter-spacing:1;}
	.st6{font-family:'NotoSansCJKtc-Light-B5pc-H';}
	.st7{font-size:25.25px;}
	.st8{fill:#3E3A39;}
	.st9{font-family:'NotoSansCJKtc-Regular-B5pc-H';}
	.st10{font-size:20px;}
	.st11{font-size:15px;}
</style>
<polygon class="st0" points="414,22.2 0,72.8 18.9,230.8 431.2,232.8 "/>
<g id="Layer_2_1_">
	<g id="設計">
		<polygon class="st1" points="431.2,22.2 39.4,32.7 36.1,230.9 428.8,232.8 		"/>
		<polyline class="st2" points="277,45.6 114.4,0.7 59.8,169.6 395.7,273.9 452.8,94.1 418,84.5 		"/>
		<text transform="matrix(1 0 0 1 278.2 103.47)" class="st3 st4 st5">RWD</text>
		<text transform="matrix(1 0 0 1 156.46 163.14)" class="st3 st4 st5">WEBSITE</text>
		<text transform="matrix(1 0 0 1 243.25 206.17)" class="st6 st7">RWD 網站建置</text>
		<text transform="matrix(1 0 0 1 45.82 272.94)" class="st8 st9 st10">．企業形象網站</text>
		<text transform="matrix(1 0 0 1 45.82 302.94)" class="st8 st9 st10">．活動網站 / 網頁</text>
		<text transform="matrix(1 0 0 1 45.82 332.94)" class="st8 st9 st10">．RWD 跨螢網站</text>
		<text transform="matrix(1 0 0 1 45.82 362.94)" class="st8 st9 st10">．AWS 主機維運</text>
		<text transform="matrix(1 0 0 1 45.82 392.94)" class="st8 st9 st10">．SEO</text>
		<text transform="matrix(1 0 0 1 104.36 392.94)" class="st8 st9 st11">(SEARCH ENGINE OPTIMIZATION)</text>
	</g>
</g>
</svg>
