<?xml version="1.0" encoding="utf-8"?>
<!-- Generator: Adobe Illustrator 24.1.3, SVG Export Plug-In . SVG Version: 6.00 Build 0)  -->
<svg version="1.1" id="Layer_1" xmlns="http://www.w3.org/2000/svg" xmlns:xlink="http://www.w3.org/1999/xlink" x="0px" y="0px"
	 viewBox="0 0 870.1 82.2" style="enable-background:new 0 0 870.1 82.2;" xml:space="preserve">
<g>
	<path d="M593.8,39.5l0.2-0.1v-0.2C593.9,39.2,593.8,39.4,593.8,39.5z"/>
	<path d="M769.4,44.2l-0.2,0.8c0.1-0.3,0.3-0.6,0.4-0.9L769.4,44.2z"/>
	<polygon points="629.4,76.6 629.4,79.5 636.4,79.5 632.4,72.5 	"/>
	<polygon points="642.8,31.4 642.7,29.6 639.2,29.6 639.2,16.9 629.4,25.7 629.4,29.6 625.2,29.6 620.6,33.8 	"/>
	<path d="M641.5,24.7c0.2,0.1,0.5,0.2,0.8,0.3l-0.1-1.5C641.9,23.9,641.7,24.3,641.5,24.7z"/>
	<path d="M585.4,33.9c-0.2,0.3-0.5,0.6-0.7,0.9c1.1,1.9,2.6,5.2,3.7,7.8l5.4-3.2c0.1-0.1,0.1-0.2,0.2-0.3v0.2l3-1.8L585.4,33.9z"/>
	<path d="M589.4,45.4c1.4-1.8,2.9-3.7,4.4-5.9l-5.4,3.2C588.8,43.7,589.2,44.7,589.4,45.4z"/>
	<polygon points="594,39.3 594,48.5 597,37.6 	"/>
	<polygon points="636.4,79.5 639.2,79.5 639.2,73.9 632.4,72.5 	"/>
	<path d="M594,19.8c-2.6,5.4-5.6,10.2-8.7,14.1l11.6,3.6L594,19.8z"/>
	<polygon points="657.7,57.1 660.9,57.1 660.9,55.6 648,56.5 	"/>
	<polygon points="629.4,71.5 629.4,73.4 632.4,72.5 	"/>
	<polygon points="629.4,73.4 629.4,76.6 632.4,72.5 	"/>
	<polygon points="639.2,3.2 629.4,3.2 629.4,4.8 639.2,9.4 	"/>
	<polygon points="639.2,9.4 629.4,4.8 629.4,5.6 639.2,13.2 	"/>
	<polygon points="642.7,29.6 642.8,31.4 644.5,29.6 	"/>
	<path d="M642.3,25c1.2,0.5,2.7,1.1,4.1,1.7l-2.7-6.3c-0.5,1.1-1.1,2.1-1.6,3.1L642.3,25z"/>
	<path d="M646.5,26.8l-1.6-8.8c-0.4,0.8-0.8,1.7-1.2,2.4L646.5,26.8L646.5,26.8z"/>
	<path d="M609.3,6l-9-2.7c-0.5,1.6-1,3.2-1.5,4.8l10.4-1.7C609.3,6.3,609.3,6.2,609.3,6z"/>
	<path d="M646.8,26.9L656,9.7l-8.1,1.2c-0.9,2.4-2,4.8-3.1,7l1.6,8.8C646.6,26.8,646.7,26.8,646.8,26.9z"/>
	<path d="M648,10.9l8.1-1.2l-0.2-0.4l-6.5-1.8C648.9,8.6,648.5,9.7,648,10.9z"/>
	<polygon points="656.3,9.4 655.8,9.3 656,9.7 	"/>
	<polygon points="657.2,9.6 656.3,9.4 656,9.7 	"/>
	<path d="M657.8,10.4c0.1-0.2,0.1-0.4,0.2-0.5l-0.8-0.2H656L657.8,10.4z"/>
	<polygon points="610.1,57.1 622.3,57.1 628.6,52.7 609.7,54.6 	"/>
	<polygon points="622.3,57.1 629.4,57.1 629.4,71.5 632.4,72.5 628.6,52.7 	"/>
	<polygon points="620.6,33.8 622.7,38.6 629.4,38.6 629.4,48.1 626.7,48.1 628.6,52.7 642.8,31.4 	"/>
	<polygon points="646.3,48.1 639.2,48.1 639.2,38.6 644.3,38.6 642.8,31.4 628.6,52.7 648,56.5 	"/>
	<polygon points="594,79.5 597.9,79.5 594,71.2 	"/>
	<polygon points="594,71.2 597.9,79.5 603.2,79.5 603.2,76.7 594,70.8 	"/>
	<polygon points="628.6,52.7 632.4,72.5 639.2,67.9 639.2,59.4 	"/>
	<polygon points="628.6,52.7 639.2,59.4 639.2,57.1 647.8,57.1 648,56.5 	"/>
	<polygon points="632.4,72.5 639.2,73.9 639.2,67.9 	"/>
	<polygon points="647.8,57.1 657.7,57.1 648,56.5 	"/>
	<polygon points="594,65.3 594,70.5 603.2,65.7 603.2,64.6 	"/>
	<polygon points="594,70.5 594,70.8 603.2,76.7 603.2,65.7 	"/>
	<polygon points="608.7,57.1 610.1,57.1 609.7,54.6 	"/>
	<polygon points="657.6,32.7 651.4,29.6 644.5,29.6 642.8,31.4 657.6,34.4 	"/>
	<polygon points="657.6,38.6 657.6,34.4 642.8,31.4 644.3,38.6 	"/>
	<polygon points="646.3,48.1 648,56.5 654.3,48.1 	"/>
	<polygon points="651.4,29.6 657.6,32.7 657.6,29.6 	"/>
	<path d="M649.6,28.4c2.1-4,5-10.2,7.3-15.8l-0.9-3l-9.3,17.2C647.9,27.4,648.9,27.9,649.6,28.4z"/>
	<path d="M657.8,10.4L656,9.7l0.9,3C657.2,11.9,657.5,11.2,657.8,10.4z"/>
	<polygon points="648,56.5 660.9,55.6 660.9,52.5 	"/>
	<polygon points="654.3,48.1 648,56.5 660.9,52.5 660.9,48.1 	"/>
	<path d="M594,19.8l3,17.7l6.2-3.7V22.1c0.4-0.8,0.7-1.6,1.1-2.4l-7.3-6.4C596,15.5,595.1,17.7,594,19.8z"/>
	<path d="M604.3,19.6c1.9-4.4,3.5-8.9,4.9-13.2l-10.4,1.7c-0.6,1.7-1.2,3.4-1.9,5.1L604.3,19.6z"/>
	<path d="M616.6,7.3L609,11c2.4,3.5,5.1,7.7,7.4,11.5l4.8-8.8C619.7,11.4,618.1,9.2,616.6,7.3z"/>
	<polygon points="625.2,29.6 615.8,29.6 620.6,33.8 	"/>
	<polygon points="639.2,16.9 639.2,15.9 629.4,20.4 629.4,25.7 	"/>
	<path d="M619.6,28.5l7.8-4.5c-0.3-0.7-0.7-1.4-1.2-2.2l-8.2,3.8C618.7,26.6,619.2,27.6,619.6,28.5z"/>
	<path d="M626.3,21.8c-1.4-2.5-3.2-5.3-5.1-8.2l-4.8,8.8c0.6,1.1,1.2,2.1,1.7,3.1L626.3,21.8z"/>
	<polygon points="639.2,13.2 629.4,5.6 629.4,20.4 639.2,15.9 	"/>
	<polygon points="603.2,53 594,61 594,63.2 603.2,53.7 	"/>
	<polygon points="603.2,53 603.2,45.3 597,37.6 594,48.5 594,61 	"/>
	<polygon points="603.2,53.7 594,63.2 594,65.3 603.2,64.6 	"/>
	<polygon points="597,37.6 603.2,45.3 603.2,33.8 	"/>
	<polygon points="611.2,29.6 611.2,35.4 613,29.6 	"/>
	<polygon points="607.8,51.3 607.8,57.1 608.7,57.1 609.7,54.6 	"/>
	<polygon points="607.8,51.3 609.7,54.6 628.6,52.7 607.8,50 	"/>
	<polygon points="616.5,38.6 620.6,33.8 615.8,29.6 613,29.6 611.2,35.4 611.2,38.6 	"/>
	<polygon points="607.8,48.1 607.8,48.8 608.4,48.1 	"/>
	<polygon points="608.4,48.1 607.8,48.8 607.8,50 628.6,52.7 626.7,48.1 	"/>
	<polygon points="620.6,33.8 616.5,38.6 622.7,38.6 	"/>
	<path d="M705.2,60.9c0.1,0.6,0.2,1.2,0.2,1.7l0.2-2.9L705.2,60.9z"/>
	<path d="M717.1,70.7l6.2-2v-0.1l-7.2-3.6C716.7,67.1,717,69.1,717.1,70.7z"/>
	<path d="M705.9,73.5l6.7-1.1c0.1-2.6-0.1-6-0.5-9.5l-6.5-3.2l-0.2,2.9C706,66.6,706.2,70.6,705.9,73.5z"/>
	<path d="M722.6,71.2c0.1,0.2,0.2,0.4,0.3,0.6l2.6-0.3C724.7,71.4,723.7,71.3,722.6,71.2z"/>
	<path d="M728,71.5l-3.6,4.7c0.3,1.2,0.4,2.3,0.5,3.3c3.4,0.1,6.6,0,8.5-0.3c1-0.1,1.8-0.4,2.6-0.7l-7.3-7
		C728.5,71.5,728.3,71.5,728,71.5z"/>
	<path d="M728.8,71.5L728.8,71.5l7.3,7c1-0.5,1.9-1.1,2.7-2.2s1.5-2.9,2-5.9l-9.9,0.6C730.2,71.4,729.6,71.5,728.8,71.5z"/>
	<path d="M742.3,53.1c0.1-1.7,0.2-3.4,0.2-5.3c0-0.7,0.1-1.9,0.1-2.7l-5.8,4.7L742.3,53.1z"/>
	<path d="M725.5,71.4l-2.6,0.3c0.4,0.8,0.7,1.6,1,2.5l3.8-2.7C727.1,71.5,726.4,71.5,725.5,71.4z"/>
	<path d="M727.8,71.5l-3.8,2.7c0.2,0.6,0.4,1.3,0.5,1.9l3.6-4.7C727.9,71.5,727.8,71.5,727.8,71.5z"/>
	<polygon points="716,14.9 719,6.4 712,6.4 714.4,14.9 	"/>
	<polygon points="670.1,51.3 670.1,52.1 678.7,46.7 678.7,46.5 	"/>
	<polygon points="678.7,48.1 678.7,46.7 670.1,52.1 670.1,63.8 678.7,63.8 678.7,57.1 680.3,57.1 680.9,48.1 	"/>
	<polygon points="670.1,42.3 671.2,44.6 678.7,45 678.7,43.7 670.1,38.8 	"/>
	<path d="M689.7,73.6l5.6,2.7l-3.2-7.1C691.3,70.8,690.6,72.3,689.7,73.6z"/>
	<polygon points="680.9,48.1 680.3,57.1 686.5,57.1 682.5,48.1 	"/>
	<path d="M705,59.3c0.1,0.5,0.2,1.1,0.3,1.6l0.4-1.2L705,59.3z"/>
	<path d="M695.5,55.2c-0.6,4.7-1.7,9.8-3.5,13.9l3.2,7.1l1.4,0.7c3.3-4.7,5-12.3,6-19l-2.2-1.3L695.5,55.2z"/>
	<polygon points="693.5,52.5 684.9,47.4 684.9,48.1 682.5,48.1 686.5,57.1 693.5,57.1 	"/>
	<polygon points="728.4,19.5 731.6,20.1 731.5,19.5 	"/>
	<polygon points="716.1,14.9 716.1,17.4 725,18.9 725,14.9 730.5,14.9 728.6,6.4 719,6.4 716,14.9 	"/>
	<polygon points="732.8,14.9 734.7,6.4 728.6,6.4 730.5,14.9 	"/>
	<polygon points="731.5,19.5 731.6,20.1 731.8,19.5 	"/>
	<polygon points="737.4,14.9 740.4,12.1 740.4,6.4 734.7,6.4 732.8,14.9 	"/>
	<polygon points="731.6,20.1 732.2,19.5 731.8,19.5 	"/>
	<polygon points="670.1,36.7 678.7,33.1 678.7,20.5 676.8,18.2 670.1,32.8 	"/>
	<polygon points="684.9,30.6 686.3,30 684.9,28.2 	"/>
	<polygon points="684.9,34.1 686.3,30 684.9,30.6 	"/>
	<polygon points="670.1,38.8 678.7,43.7 678.7,33.1 670.1,36.7 	"/>
	<polygon points="678.7,20.5 678.7,19.4 684.2,19.4 682.4,10.4 681.1,10.4 676.8,18.2 	"/>
	<polygon points="684.9,28.2 686.3,30 684.9,22.9 	"/>
	<path d="M700.4,56.6l2.2,1.3c0-0.2,0.1-0.4,0.1-0.7L700.4,56.6z"/>
	<path d="M704.8,58.4c0.1,0.3,0.1,0.6,0.2,0.9l0.7,0.4L704.8,58.4z"/>
	<polygon points="698.1,52.4 700.8,52.4 698.1,48.2 	"/>
	<polygon points="684.9,34.1 684.9,47.4 693.5,52.5 693.5,41.1 686.3,30 	"/>
	<polygon points="698.6,11.6 698.1,11.5 698.1,12.3 	"/>
	<polygon points="684.9,19.4 684.9,22.9 686.3,30 693.5,19.1 693.5,10.7 692,10.4 682.4,10.4 684.2,19.4 	"/>
	<polygon points="693.5,19.1 686.3,30 693.5,26.8 	"/>
	<polygon points="709.9,19.5 707.3,19.5 707.3,14.9 708.2,14.9 698.6,11.6 698.1,12.3 698.1,24.8 	"/>
	<polygon points="681.1,10.4 670.1,10.4 670.1,15.4 676.8,18.2 	"/>
	<polygon points="686.3,30 693.5,41.1 693.5,30.2 	"/>
	<path d="M704.5,56.9c0.1,0.5,0.2,1,0.3,1.6l0.9,1.3l2.7-3.5L704.5,56.9z"/>
	<path d="M726.7,31.9H725v-1l-8.9-0.2v1.2h-8.8v-1.4l-9.2-0.2v17.9l2.7,4.2h10.4L726.7,31.9z M707.3,39.4h8.8v4.9h-8.8V39.4z"/>
	<polygon points="716.1,18.3 716.1,19.5 709.9,19.5 698.1,24.8 698.1,30.3 707.3,30.5 707.3,27.1 716.1,27.1 716.1,30.7 725,30.9 
		725,28.3 	"/>
	<polygon points="686.3,30 693.5,30.2 693.5,26.8 	"/>
	<polygon points="736.8,49.8 734.1,44.3 725,44.3 725,39.4 731.6,39.4 727.8,31.9 726.7,31.9 711.2,52.4 728.8,52.4 	"/>
	<path d="M713.5,56.2c0.1,0.3,0.2,0.6,0.4,0.9l5.8-1.8c-0.1-0.2-0.2-0.5-0.3-0.7L713.5,56.2z"/>
	<path d="M710.8,55.8l-2.5,0.4l-2.7,3.5l5.6-1.8C711.1,57.2,711,56.5,710.8,55.8z"/>
	<polygon points="725,28.3 725,27.1 728.9,27.1 731.6,20.1 728.4,19.5 725,19.5 725,18.9 716.1,17.4 716.1,18.3 	"/>
	<polygon points="731.6,39.4 738.2,39.4 738.2,39 728.6,31.9 727.8,31.9 	"/>
	<path d="M734.1,44.3l2.8,5.6l5.8-4.7c0-0.5,0-0.8,0-0.8L734.1,44.3L734.1,44.3z"/>
	<polygon points="698.1,10.7 698.1,11.5 698.6,11.6 	"/>
	<polygon points="693.5,10.4 692,10.4 693.5,10.7 	"/>
	<polygon points="698.1,6.4 698.1,8.6 699.1,6.4 	"/>
	<polygon points="708.2,14.9 709.6,14.9 698.1,9.9 698.1,10.7 698.6,11.6 	"/>
	<polygon points="698.1,8.6 698.1,9.9 709.6,14.9 714.4,14.9 712,6.4 699.1,6.4 	"/>
	<path d="M732.8,63.3l2.6-4.5l-2.2,0.1C733.1,60.6,733,62,732.8,63.3z"/>
	<path d="M724.3,59.2c1.1,2.6,2,5.3,2.4,7.4l5.4-2l0.2-0.3c-0.4-1.5-1.1-3.3-1.9-5.2L724.3,59.2z"/>
	<path d="M705.6,59.8l6.5,3.2c-0.1-1.1-0.3-2.3-0.5-3.4L705.6,59.8z"/>
	<path d="M714.6,59.5c0.6,1.8,1.1,3.7,1.5,5.6l7.2,3.6c-0.3-2.5-1.2-6-2.3-9.3L714.6,59.5z"/>
	<path d="M728.8,52.4h4.7c-0.1,2.5-0.2,4.6-0.4,6.5l2.2-0.1l1.4-9L728.8,52.4z"/>
	<path d="M727.5,53.3l-5.1,1.8c0.7,1.3,1.3,2.7,1.9,4.1l6.1-0.2C729.6,57,728.6,55,727.5,53.3z"/>
	<path d="M711.3,58l-5.6,1.8l5.9-0.2C711.5,59,711.4,58.5,711.3,58z"/>
	<path d="M713.8,57.2c0.3,0.7,0.5,1.5,0.8,2.3l6.4-0.2c-0.5-1.4-0.9-2.7-1.5-3.9L713.8,57.2z"/>
	<path d="M732.4,64.4c0-0.1,0-0.1-0.1-0.2l-0.2,0.3L732.4,64.4z"/>
	<path d="M735.4,58.8l-2.6,4.5c-0.4,4.3-1,6.4-1.6,7.2c-0.1,0.2-0.3,0.3-0.4,0.4l9.9-0.6c0.2-1,0.3-2.1,0.5-3.3L735.4,58.8z"/>
	<path d="M735.4,58.8l6.6-0.9c0.1-1.5,0.2-3.1,0.3-4.8l-5.4-3.3L735.4,58.8z"/>
	<path d="M741.2,67c0.3-2.5,0.5-5.5,0.8-9.1l-6.6,0.9L741.2,67z"/>
	<polygon points="676.8,18.2 670.1,15.4 670.1,27.1 	"/>
	<polygon points="676.8,18.2 670.1,27.1 670.1,32.8 	"/>
	<polygon points="670.1,49.3 670.1,51.3 678.7,46.5 678.7,46 	"/>
	<polygon points="671.2,44.6 670.1,42.3 670.1,45.8 	"/>
	<polygon points="670.1,45.8 670.1,49.3 678.7,46 678.7,45 671.2,44.6 	"/>
	<polygon points="728.9,27.1 732.9,27.1 738.2,23.5 738.2,22 731.6,20.1 	"/>
	<polygon points="738.2,31.9 728.6,31.9 738.2,39 	"/>
	<polygon points="738.2,23.5 732.9,27.1 738.2,27.1 	"/>
	<polygon points="738.2,22 738.2,19.5 732.2,19.5 731.6,20.1 	"/>
	<polygon points="740.4,14.9 740.4,12.1 737.4,14.9 	"/>
	<path d="M765.1,65.1c0,1.7,0.5,3.2,1.3,4.5l9.8,3.3c1.5-0.4,2.7-1.1,3.7-2.1L768.1,59C766.2,60.3,765.1,62.5,765.1,65.1z"/>
	<path d="M778.7,20.9c1.3,0.5,2.4,1.1,3.2,1.9l-2.6-12.2c-0.4,0-0.7-0.1-1.1-0.1L778.7,20.9z"/>
	<path d="M779.7,34.4l0.6,7.4l2.1-10C781.7,32.7,780.7,33.5,779.7,34.4z"/>
	<path d="M783.9,28.5l9.5,4.7c1.3-1.8,2.1-3.9,2.1-6.4c0-0.3,0-0.6,0-1L783.9,28C783.9,28.1,783.9,28.3,783.9,28.5z"/>
	<path d="M771.2,51.5h7.6c-0.4-3.5,1-6,3.2-8.2l-1.8-1.4L771.2,51.5z"/>
	<path d="M782.1,65.1c0-4.7-3.6-8-8.5-8c-2.2,0-4.1,0.6-5.5,1.8l11.8,11.8C781.3,69.3,782.1,67.4,782.1,65.1z"/>
	<path d="M782.4,31.8l-2.1,10l1.8,1.4c1.5-1.6,3.5-3,5.3-4.4l-3.7-9.4C783.4,30.3,782.9,31,782.4,31.8z"/>
	<path d="M783.7,29.4l3.7,9.4c2.2-1.7,4.4-3.5,6-5.7l-9.5-4.7C783.8,28.8,783.8,29.1,783.7,29.4z"/>
	<path d="M773.6,20.1c0.8,0,1.6,0,2.3,0.1l-8.2-8.9c-5.5,1.5-10.2,4.7-13.9,9l5.3,4.9l2.9-0.3C765.4,21.8,769.2,20.1,773.6,20.1z"/>
	<path d="M778.7,20.9l-0.5-10.3c-1.1-0.1-2.2-0.2-3.3-0.2c-2.5,0-4.9,0.3-7.2,1l8.2,8.9C777,20.4,777.9,20.6,778.7,20.9z"/>
	<path d="M762.1,25l-2.9,0.3l1.4,1.3C761,26,761.5,25.5,762.1,25z"/>
	<path d="M769.7,44.1c-0.2,0.3-0.3,0.6-0.4,0.9l-1,3.7c-0.1,0.9,0,1.8,0.1,2.7h2.9l9.1-9.7L769.7,44.1z"/>
	<path d="M769.7,44.1l10.6-2.3l-0.6-7.4C776.4,37.2,771.9,40,769.7,44.1z"/>
	<path d="M773.6,73.2c0.9,0,1.8-0.1,2.6-0.3l-9.8-3.3C767.9,71.9,770.5,73.2,773.6,73.2z"/>
	<path d="M783.9,26.7l6.4-11.8c-2.8-2.3-6.5-3.7-10.9-4.3l2.6,12.2C783,23.8,783.7,25.2,783.9,26.7z"/>
	<path d="M783.9,27.8c0,0.1,0,0.1,0,0.2l11.5-2.2c-0.2-4.7-2.1-8.3-5.2-10.8l-6.4,11.8C783.9,27.1,783.9,27.4,783.9,27.8z"/>
	<path d="M768.2,48.8l1-3.7C768.7,46.1,768.3,47.4,768.2,48.8z"/>
	<path d="M204.7,72.6l0.5,0.4v-0.4C205,72.6,204.9,72.6,204.7,72.6z"/>
	<path d="M381.6,74.2l0.1,0.1C381.7,74.3,381.7,74.2,381.6,74.2L381.6,74.2z"/>
	<path d="M241.5,66.6c-0.6-0.3-1.1-0.7-1.7-1c0.5-0.6,1-1.1,1.4-1.7l-1.6-19.1h-0.5l-8.2,7.4h7.1c-1.3,2.8-3.2,5.4-5.3,7.7
		c-1.6-1.7-3.1-3.5-4.3-5.4l-6.1,5.5c1.3,2,2.7,3.9,4.1,5.6c-3.7,2.7-7.9,4.9-12.3,6.2v-4.3l-7.6,6.9l7.6-0.8v-1.2
		c0.3,0.3,0.6,0.7,0.9,1.1l26.7-2.8L241.5,66.6z"/>
	<polygon points="242.1,31.5 242.1,14.3 238.8,14.5 241.9,31.5 	"/>
	<polygon points="245,34 242.4,34 243.3,39.1 	"/>
	<polygon points="229.3,21.2 229.3,19.6 226.3,21.2 	"/>
	<polygon points="241.9,31.5 238.8,14.5 232.3,17.9 232.3,31.5 	"/>
	<polygon points="223.7,29.9 229.3,29.9 229.3,24.3 220.5,24.3 216.4,26.4 	"/>
	<polygon points="242.4,34 232.4,34 243.3,39.1 	"/>
	<polygon points="236.1,41.7 241.5,41.7 243.3,39.1 232.4,34 226.1,34 	"/>
	<polygon points="220.9,29.9 223.7,29.9 216.4,26.4 	"/>
	<path d="M241.5,66.6l0.3,4l2.3-2.6C243.2,67.6,242.3,67.1,241.5,66.6z"/>
	<path d="M239.7,44.8h-0.1l1.6,19.1c1.5-1.9,2.8-3.9,4-6.1L239.7,44.8z"/>
	<path d="M242.3,44.8h-2.5l5.5,13.1c0.4-0.7,0.7-1.3,1.1-2l-2-11.2l-0.5-0.2L242.3,44.8z"/>
	<polygon points="243.3,39.1 241.5,41.7 243.8,41.7 	"/>
	<polygon points="207.2,24.3 200.3,24.3 200.3,29.1 216.4,26.4 	"/>
	<polygon points="197.7,29.5 197.7,22 188.4,19.8 188.4,31 	"/>
	<polygon points="243.8,41.7 251.4,41.7 251.4,37.9 243.3,39.1 	"/>
	<path d="M249.9,46.7l-5.6-2.1l2,11.2C247.7,53,248.9,50,249.9,46.7z"/>
	<polygon points="251.4,37.9 251.4,34 245,34 243.3,39.1 	"/>
	<polygon points="208.9,79.6 214.2,79.6 214.2,73.5 206.7,74.3 	"/>
	<path d="M215.1,73.4c1.5,1.9,3.1,4.3,3.9,6.1c5.2-2,10-4.5,14.3-7.8c1.7,1.3,3.5,2.4,5.4,3.5l3-4.6L215.1,73.4z"/>
	<path d="M238.8,75.1c1.4,0.7,2.9,1.4,4.4,2l-1.4-6.6L238.8,75.1z"/>
	<polygon points="215.6,24.3 216.4,26.4 218.2,24.3 	"/>
	<polygon points="220.9,21.2 225.7,15.5 212.4,15.5 214.5,21.2 	"/>
	<polygon points="228.2,12.6 233.9,5.9 208.9,5.9 211.3,12.6 	"/>
	<polygon points="226.3,21.2 229.3,19.6 229.3,15.5 225.7,15.5 220.9,21.2 	"/>
	<polygon points="216.4,26.4 220.5,24.3 218.2,24.3 	"/>
	<polygon points="232.3,12.6 232.3,17.9 238.8,14.5 240.6,5.9 233.9,5.9 228.2,12.6 	"/>
	<polygon points="242.1,5.9 240.6,5.9 238.8,14.5 242.1,14.3 	"/>
	<polygon points="197.7,22 197.7,15.9 188.4,10.7 188.4,19.8 	"/>
	<polygon points="212.5,24.3 207.2,24.3 216.4,26.4 	"/>
	<polygon points="200.3,21.2 207,21.2 200.3,17.4 	"/>
	<polygon points="215.6,24.3 212.5,24.3 216.4,26.4 	"/>
	<polygon points="212.4,15.5 200.3,15.5 200.3,17.4 207,21.2 214.5,21.2 	"/>
	<polygon points="197.7,12.6 211.3,12.6 208.9,5.9 188.4,5.9 188.4,10.7 197.7,15.9 	"/>
	<path d="M253.8,71.3c-3.5-0.8-6.7-2-9.7-3.4l-2.3,2.6l10.6,2.2C252.9,72.2,253.4,71.7,253.8,71.3z"/>
	<path d="M252.4,72.7l-10.6-2.2l1.4,6.6c1.6,0.6,3.2,1.2,4.9,1.7C249,77.1,250.8,74.6,252.4,72.7z"/>
	<path d="M193.9,63.2l-8.7-7.5v10.7c-2.6,0.2-5,0.4-7.1,0.6l0.7,7.6l15.1-9.1V63.2L193.9,63.2z"/>
	<path d="M193.9,61.7h3.1l3.7-6.7h-6.8v-3.3h8.6l9.7-17.7h-33.4v7.7h6.4v14.1l8.7,7.5L193.9,61.7L193.9,61.7z M193.9,41.7h11.3V45
		h-11.3V41.7z"/>
	<polygon points="197.7,31.5 197.7,29.5 188.4,31 188.4,31.5 	"/>
	<polygon points="214.5,29.9 216.4,26.4 200.3,29.1 200.3,29.9 	"/>
	<path d="M219.1,53.8c1,2.2,2.1,4.2,3.4,6.2l6.1-5.5c-0.5-0.7-0.9-1.5-1.3-2.2h3.7l8.2-7.4h-0.4L219.1,53.8z"/>
	<path d="M214.2,67.4V56l-12.5,5.7h3.4v2.9c-2.9,0.3-5.9,0.6-8.8,0.8l8.3,7.2c0.1,0,0.3,0,0.5,0V73l1.5,1.3L214.2,67.4z"/>
	<path d="M216.8,44.8v7.4h4.9l-2.9,0.8c0.1,0.2,0.2,0.5,0.3,0.7l19.7-9L216.8,44.8L216.8,44.8z"/>
	<polygon points="214.2,56 214.2,41.7 236.1,41.7 226.1,34 212.2,34 202.5,51.7 205.2,51.7 205.2,55 200.7,55 197,61.7 201.8,61.7 	
		"/>
	<polygon points="216.4,26.4 214.5,29.9 220.9,29.9 	"/>
	<path d="M193.9,65.6L193.9,65.6l-15.1,9l0.1,0.8c4.1-0.5,8.8-0.9,13.8-1.4l2.5-8.4C194.7,65.5,194.3,65.6,193.9,65.6z"/>
	<polygon points="205.2,73 205.2,76.1 206.7,74.3 	"/>
	<path d="M196.4,65.4c-0.4,0-0.8,0.1-1.2,0.1l-2.5,8.4c3.9-0.4,8-0.8,12-1.3L196.4,65.4z"/>
	<polygon points="205.2,76.1 205.2,79.6 208.9,79.6 206.7,74.3 	"/>
	<polygon points="313.1,11.6 313.1,3.6 312.3,3.3 303.3,3.3 303.3,12.3 298.3,12.3 300.6,21.4 303.3,21.4 303.3,29.9 302.7,29.9 
		303.9,34.7 	"/>
	<polygon points="303.3,59.1 303.3,67.7 287.3,67.7 283,77 289.5,77 310.6,68.3 	"/>
	<polygon points="302.3,57.9 295.7,49.6 291.9,57.9 	"/>
	<polygon points="289.5,77 307.7,77 310.6,68.3 	"/>
	<polygon points="302.3,57.9 303.3,57.9 303.3,59.1 310.6,68.3 305.3,41.4 303.3,41.4 303.3,48.6 296.2,48.6 295.7,49.6 	"/>
	<polygon points="303.9,34.7 301.5,39.1 304.8,39.1 	"/>
	<polygon points="307.7,77 316.3,77 310.6,68.3 	"/>
	<polygon points="329.5,39.1 303.9,34.7 304.8,39.1 	"/>
	<polygon points="313.1,57.9 317.6,57.9 323.8,48.6 313.1,48.6 313.1,41.4 305.3,41.4 310.6,68.3 313.1,64.6 	"/>
	<polygon points="331.6,57.9 331.6,48.6 323.8,48.6 317.6,57.9 	"/>
	<polygon points="310.6,68.3 313.1,67.2 313.1,64.6 	"/>
	<path d="M262.8,36.2l-3.3,0.5c0.5,0.9,1,1.8,1.5,2.8L262.8,36.2z"/>
	<path d="M259.5,36.7l3.3-0.5l-2.3-4.7c-0.8,0.9-1.6,1.8-2.5,2.7C258.4,34.8,259,35.7,259.5,36.7z"/>
	<path d="M284.4,8.4c0.2-0.6,0.5-1.3,0.7-1.9L276,3.6c-3.5,10.3-9.3,20.6-15.5,27.9l2.3,4.7L284.4,8.4z"/>
	<polygon points="302.7,29.9 283.1,29.9 283.1,35.4 303.9,34.7 	"/>
	<path d="M277.6,35.6V23.2c2.6-4.8,4.9-9.9,6.8-14.8l-21.6,27.8L277.6,35.6z"/>
	<polygon points="286.9,12.3 286.9,21.4 300.6,21.4 298.3,12.3 	"/>
	<polygon points="296.2,48.6 293.2,48.6 295.7,49.6 	"/>
	<polygon points="277.6,42.2 277.6,35.6 262.8,36.2 	"/>
	<polygon points="301.5,39.1 303.9,34.7 283.1,35.4 283.1,39.1 	"/>
	<polygon points="316.3,77 335.1,77 335.1,68.9 310.6,68.3 	"/>
	<polygon points="313.1,67.7 313.1,67.2 310.6,68.3 335.1,68.9 335.1,67.7 	"/>
	<polygon points="330,39.1 328.6,36.2 303.9,34.7 329.5,39.1 	"/>
	<polygon points="326.1,29.9 313.1,29.9 313.1,21.4 322.6,21.4 318.9,12.3 313.1,12.3 313.1,11.6 303.9,34.7 328.6,36.2 	"/>
	<polygon points="331.4,29.9 326.1,29.9 328.6,36.2 	"/>
	<polygon points="330,21.4 330,12.3 318.9,12.3 322.6,21.4 	"/>
	<polygon points="330,39.1 333.7,39.1 333.7,38.3 328.6,36.2 	"/>
	<polygon points="333.7,38.3 333.7,29.9 331.4,29.9 328.6,36.2 	"/>
	<polygon points="313.1,3.3 312.3,3.3 313.1,3.6 	"/>
	<polygon points="267.9,75.9 274.7,77.3 267.9,73.9 	"/>
	<polygon points="267.9,75.9 267.9,79.6 273,79.6 274.7,77.3 	"/>
	<path d="M263.2,44.1c0.5-0.5,0.9-1,1.4-1.6l-1.9-6.4l-1.8,3.3C261.9,41.3,262.8,43,263.2,44.1z"/>
	<polygon points="274.7,77.3 267.9,53.9 267.9,73.9 	"/>
	<path d="M267.9,38.4v15.5l6.8,23.4l2.9-3.8V42.2l-14.8-6.1l1.9,6.4C265.7,41.3,266.9,39.9,267.9,38.4z"/>
	<polygon points="285.3,57.9 289.5,57.9 295.7,49.6 293.2,48.6 285.3,48.6 	"/>
	<polygon points="280.8,67.7 280.8,69.3 282,67.7 	"/>
	<polygon points="277.6,78.6 277.6,73.5 274.7,77.3 	"/>
	<polygon points="280.8,69.3 280.8,77 283,77 287.3,67.7 282,67.7 	"/>
	<polygon points="295.7,49.6 289.5,57.9 291.9,57.9 	"/>
	<polygon points="273,79.6 274.9,79.6 274.7,77.3 	"/>
	<polygon points="274.9,79.6 277.6,79.6 277.6,78.6 274.7,77.3 	"/>
	<path d="M347,8.2v7.1l4.7,16.6h7.7v2.3h-7.1l1.7,5.9h5.2l8.4-23.1h-0.8v-2.6h1.7l2.2-6.1h-3.9V4.5l-7.4-0.4v4.2L347,8.2L347,8.2z
		 M359.4,25.8H355v-2.9h4.4V25.8z M359.4,17H355v-2.6h4.4V17z"/>
	<polygon points="356.3,48.1 358.1,43.1 354.9,43.1 	"/>
	<polygon points="366.8,3.3 359.4,3.3 359.4,4.1 366.8,4.5 	"/>
	<polygon points="372.3,50.4 372.3,50.9 379.9,52.2 379.9,50.4 	"/>
	<path d="M371.5,14.4V17h-4l-8.4,23.1h0.2v3H358l-1.8,5l8.8,1.5c0.1-0.2,0.2-0.4,0.3-0.6h16.3l-3.2-14.8h-11.7v-2.3h11.2l-5.2-23.7
		h-2l-2.2,6.1L371.5,14.4L371.5,14.4z M373.3,40.1v3h-6.5v-3H373.3z M371.5,25.8h-4.7v-2.9h4.7V25.8z"/>
	<path d="M381.7,49v-8.4c0.8,0.6,1.8,1.6,2.8,2.6l8.8-39.4l-2-0.3c-1.5,14.1-4.2,28-9.6,36.7v-6h-3.3L381.7,49L381.7,49L381.7,49z"
		/>
	<polygon points="379.9,31.9 379.9,23.4 385.5,23.4 385.5,16.5 379.9,16.5 379.9,8.2 372.7,8.2 377.9,31.9 	"/>
	<path d="M387.7,46.6c1.1-1.8,2.2-3.8,3.1-6c0.3,1.2,0.6,2.5,0.9,3.7l6.1-5.5c-0.9-3.9-1.6-8-2.2-12.2h7.7c-0.3,2.8-0.6,5.6-1,8.2
		l14.5-13.1v-3.6h-19.4c0.9-4.4,1.6-9,2.1-13.6l-6.2-0.8l-8.8,39.4C385.8,44.4,387,45.8,387.7,46.6z"/>
	<path d="M341.3,54.7l0.2-0.1C341.4,54.7,341.4,54.7,341.3,54.7L341.3,54.7z"/>
	<polygon points="344.8,49 354.2,49 356.3,48.1 344.8,44.2 	"/>
	<path d="M411.8,78.5c1.2-2.1,3.6-5.2,5.5-6.6c-3-1.8-5.6-4.1-7.9-6.8l-2.5,9.4C408.3,76,410,77.3,411.8,78.5z"/>
	<path d="M375.6,69.8l-19.4-0.4c-4.3,1.4-9.8,2.6-16.8,3.5c1.2,1.6,2.9,4.3,3.5,6.2c10.1-1.5,17.5-3.6,22.9-6
		c1.9,0.9,3.7,1.8,5.4,2.7L375.6,69.8C375.7,69.8,375.6,69.8,375.6,69.8z"/>
	<path d="M373.2,68.7c0.3-0.2,0.6-0.5,0.8-0.8l-5-5.5c-0.9,1-2.2,2-3.7,2.9c-2.7-1.1-5.5-2-8.2-2.9l1.5-2.2l8.1-0.4l-10.5-11.7
		l-2,0.9h2.6c-0.8,1.6-1.8,3.4-2.9,5.1c-4.7,0.2-8.9,0.4-12.4,0.6l-0.2,0.1l0.7,6.4l7.4-0.4c-1.1,1.8-2.5,3.4-3.6,4.7
		c3.4,1,7.2,2.3,10.9,3.8c-0.2,0.1-0.3,0.1-0.5,0.2l19.4,0.4C374.8,69.5,374,69.1,373.2,68.7z"/>
	<path d="M375.7,69.9l-4.4,5.9c1.9,1,3.7,2,5.1,3l2.6-2.3L375.7,69.9L375.7,69.9z"/>
	<path d="M371.1,59.6c-0.5,0.9-1.1,1.9-2,2.9l5,5.5c3.1-2.9,4.7-5.9,5.4-8.9h0.5l2.4-6.3l-2.5,0.2v-0.8l-7.6-1.3v2.4l-9.6,0.5
		c0.8-1.4,1.6-2.8,2.3-4.1l-8.8-1.5l10.5,11.7L371.1,59.6z"/>
	<path d="M385.3,80.1c0.7-0.5,1.5-1,2.2-1.5l-5.7-4.3C383.2,76.2,384.8,78.7,385.3,80.1z"/>
	<path d="M375.9,70c-0.1,0-0.1,0-0.2-0.1l3.3,6.6l2.6-2.2L375.9,70z"/>
	<polygon points="356.3,48.1 344.8,43.2 344.8,44.2 	"/>
	<polygon points="347,16.5 340.8,16.5 340.8,23.4 347,23.4 347,31.9 351.7,31.9 347,15.3 	"/>
	<polygon points="354.9,43.1 352.7,43.1 352.7,40.1 354,40.1 352.3,34.2 344.8,34.2 344.8,43.2 356.3,48.1 	"/>
	<polygon points="382.5,52.8 382.4,52.8 379.9,59.1 382.5,58.9 	"/>
	<path d="M397.9,68.6l-2.5-11.3c-3.3,6.4-7.9,11.4-14.3,15.2c-1.6-0.8-3.3-1.6-5.2-2.5l5.7,4.3l0,0l0.1,0.1l5.7,4.3
		C391.6,75.7,395,72.4,397.9,68.6z"/>
	<path d="M399.7,46.2c-0.7-2.4-1.4-4.9-1.9-7.4l-6.1,5.5c1.1,4.2,2.3,8.2,3.7,11.8l15.2-22.8c0.3-2.1,0.6-4.4,0.8-6.6h3.6l1.7-2.6
		v-2.3l-14.5,13.1C401.5,38.9,400.7,42.7,399.7,46.2z"/>
	<path d="M395.6,56.9c-0.1,0.2-0.2,0.3-0.2,0.5l2.5,11.3c0.7-1,1.4-2,2.1-3c2,3.4,4.3,6.3,6.9,8.9l2.5-9.4c-1.1-1.3-2.2-2.8-3.1-4.3
		l-10.8-4.3C395.5,56.6,395.6,56.7,395.6,56.9z"/>
	<path d="M406.3,60.8c-0.7-1.1-1.3-2.2-1.9-3.3c2.9-7,4.9-15,6.2-24.2l-15.2,22.8c0,0.1,0.1,0.2,0.1,0.4L406.3,60.8z"/>
	<polygon points="416.7,24 415,26.6 416.7,26.6 	"/>
	<polygon points="456.5,26.4 465.6,17 462.1,17 456.2,26.4 	"/>
	<path d="M475.2,7L467,9.2l-0.4,0.6c0.5,1.6,0.9,3.2,1.3,4.7L475.2,7z"/>
	<path d="M475.8,6.8c0-0.1-0.1-0.2-0.1-0.2L475.2,7L475.8,6.8z"/>
	<path d="M462.5,63.7l1.1-0.3l-7.1-33l-0.5,0.1l0.8,15.7c0.7,4.5,1.2,9,1.7,12.8L462.5,63.7z"/>
	<path d="M458.9,64.7l3.6-1l-4.2-4.6C458.6,61.1,458.7,63,458.9,64.7z"/>
	<polygon points="457.9,67 458.7,76.4 461.7,76.4 463.6,67 	"/>
	<path d="M474.7,67h-7.3l19.1,9.4h11V67h-13.9c0.5-1.8,1-3.7,1.5-5.7l-9.5,1.8C475.4,64.5,475.1,65.8,474.7,67z"/>
	<polygon points="463.6,67 461.7,76.4 468.4,76.4 464.6,67 	"/>
	<polygon points="464.6,67 468.4,76.4 486.5,76.4 467.4,67 	"/>
	<path d="M442.4,41.8l-13.9-15c-2,2.8-4.2,5.3-6.3,7.4c1.6,2.4,4.3,7.7,5.2,10.1c1.7-1.9,3.4-3.9,5.1-6v22l9.8-0.9L442.4,41.8
		L442.4,41.8z"/>
	<polygon points="452.6,26.4 449.2,25.5 449.2,26.4 	"/>
	<path d="M442.4,41.8v-18l-10.1-2.6c-1.2,1.9-2.5,3.8-3.8,5.6L442.4,41.8z"/>
	<path d="M454,31c1,4.7,1.9,10,2.6,15.3l-0.8-15.7L454,31z"/>
	<polygon points="446.3,67 446.3,76.4 448.8,76.4 453.1,67 	"/>
	<polygon points="442.4,79.5 442.4,59.3 432.6,60.2 432.6,79.5 	"/>
	<polygon points="448.8,76.4 458.7,76.4 457.9,67 453.1,67 	"/>
	<path d="M468,58c-1-8.3-3-19.8-5.1-28.9l-6.4,1.4l7.1,33l1.7-0.5L468,58z"/>
	<path d="M480.8,34.2l2.8-5.1l-2.2-0.3C481.3,30.5,481.1,32.3,480.8,34.2z"/>
	<polygon points="490.2,17 480,17 457.6,26.4 485.1,26.4 	"/>
	<path d="M468.4,17h-2.8l-9.1,9.4h1.1L480,17h-10.4l8.6-2.5c-0.5-2-1.4-4.7-2.3-7.4L475.2,7l-7.3,7.6
		C468.1,15.4,468.2,16.3,468.4,17z"/>
	<path d="M468.4,62c-0.1-1.2-0.3-2.6-0.5-4.1l-2.7,5L468.4,62z"/>
	<polygon points="494.8,26.4 494.8,17 490.2,17 485.1,26.4 	"/>
	<path d="M483.6,29.1l-2.8,5.1c-1.2,9.4-3.1,20.2-5.1,28.8l9.5-1.8c2.4-9.4,4.7-20.9,6.4-31L483.6,29.1z"/>
	<path d="M475.9,7.2c0-0.1-0.1-0.2-0.1-0.3L475.2,7L475.9,7.2z"/>
	<path d="M442.4,23c2.9-5.3,5.5-11,7.6-16.5l-9.2-2.9c-2.2,6.1-5.2,12.1-8.6,17.6l10.1,2.6L442.4,23L442.4,23z"/>
	<polygon points="455.6,26.4 453.9,17 449.2,17 449.2,25.5 452.6,26.4 	"/>
	<path d="M466,8c0.2,0.6,0.4,1.3,0.6,1.9l0.4-0.6L466,8z"/>
	<polygon points="456.2,26.4 462.1,17 453.9,17 455.6,26.4 	"/>
	<path d="M466,8l1,1.3l8.2-2.2l-4.9-4l-5.5,1.4C465.2,5.5,465.6,6.7,466,8z"/>
	<path d="M475.5,6c-0.5-1.4-1-2.7-1.5-3.9L470.3,3l4.9,4L475.5,6z"/>
	<path d="M475.7,6.6c-0.1-0.2-0.1-0.4-0.2-0.6l-0.3,1L475.7,6.6z"/>
	<path d="M503.2,67.7c1.5,2.5,3.5,6.7,4.3,9.6c0.7-0.5,1.3-1.1,2-1.7l9.1-20.7l-4,0.8C511.3,60.3,507.2,64.8,503.2,67.7z"/>
	<polygon points="519.1,75.5 519.1,79.6 519.6,79.6 520.8,74.3 	"/>
	<path d="M518.6,54.9l-9.1,20.7c3.5-3.3,6.7-7.6,9.6-12.3v12.3l1.7-1.2L518.6,54.9z"/>
	<polygon points="563.5,4.7 563.4,4.7 563.3,4.6 	"/>
	<polygon points="522.3,54.9 518.6,54.9 520.8,74.3 	"/>
	<path d="M520.8,74.3l7.8-6.2V61c1.2,1.4,2.4,2.9,3.5,4.3l6.7-5.3c-1.3-1.2-2.9-2.5-4.4-3.8l-12.1-1.3L520.8,74.3z"/>
	<polygon points="519.6,79.6 528.6,79.6 528.6,73 520.8,74.3 	"/>
	<path d="M539,72c1,1,2,2.4,2.9,3.9l13.3-7.6l-9,1.6C543.9,70.7,541.5,71.4,539,72z"/>
	<path d="M544.1,80.1c4.2-1.2,8.1-2.7,11.7-4.4l-0.6-7.3L541.9,76C542.8,77.4,543.6,78.9,544.1,80.1z"/>
	<path d="M545.7,59.9l-0.2-0.2C545.6,59.8,545.6,59.9,545.7,59.9C545.7,60,545.7,60,545.7,59.9z"/>
	<path d="M555.2,68.3l-1.9-1.7c-2.2,1.2-4.6,2.3-7.1,3.2L555.2,68.3z"/>
	<path d="M536.4,71l5.7-8c-0.6-0.6-1.8-1.7-3.3-3l-6.7,5.3C533.9,67.5,535.4,69.5,536.4,71z"/>
	<polygon points="528.6,73 528.6,68.1 520.8,74.3 	"/>
	<path d="M563,59.1c-0.8-0.9-1.6-1.8-2.5-2.7l-17,0.7c0.8,0.9,1.5,1.9,2.1,2.7l0.2,0.2c1.3-0.8,2.7-1.6,3.9-2.5
		c2.5,2.4,4.9,5.1,6.6,7.4c-0.9,0.6-1.9,1.2-2.9,1.8l1.9,1.7l19.7-9.6c0.6-1,1.2-1.9,1.7-3l-11.3,0.4
		C564.6,57.2,563.8,58.2,563,59.1z"/>
	<path d="M561,72.8l-5.7-4.5l0.6,7.3C557.6,74.8,559.3,73.8,561,72.8z"/>
	<path d="M562,72.1l-6.8-3.7l5.7,4.5C561.3,72.5,561.7,72.3,562,72.1z"/>
	<path d="M573.1,61.5l-17.8,6.8l6.8,3.7C566.3,69.2,570,65.7,573.1,61.5z"/>
	<path d="M574.9,58.8l-19.7,9.6l17.8-6.8C573.7,60.6,574.3,59.7,574.9,58.8z"/>
	<polygon points="528.6,6.5 519.4,6.5 523.8,19.7 	"/>
	<polygon points="527.3,18.4 527.3,14.3 532.3,14.3 532.3,16.5 540.6,13.4 540.6,6.5 528.6,6.5 523.8,19.7 	"/>
	<path d="M552,9.1l11.4-4.3l-0.1-0.1l-7.9-1.3C554.5,5.2,553.4,7.1,552,9.1z"/>
	<polygon points="515.1,14.3 520.3,14.3 520.3,18.5 522.3,19.7 519.2,6.5 507.2,6.5 507.2,10.8 515.1,15.5 	"/>
	<polygon points="522.3,19.7 523.8,19.7 519.4,6.5 519.2,6.5 	"/>
	<path d="M558.7,16.6h7.5c-1.4,2.8-3.2,5.1-5.3,7.4c-1.1-1.2-2.4-2.4-3.8-3.6l-3.3,8.3c0.3,0.3,0.5,0.6,0.8,0.8
		c-0.5,0.4-1,0.7-1.5,1.1l-4.6,11.5c2.9-1.1,5.8-2.4,8.4-3.9c-2.6,4.2-6.4,8.4-11.7,12.1l-2.4,6.1c0.1,0.1,0.3,0.3,0.4,0.4
		l30.4-14.5l-0.6,0.1h-8.7c1.1-1.6,2-3.3,2.9-4.9l-7-1.3c6.2-4.2,11.3-9.6,14.9-16.8l-8.4-10.5H562c0.7-1.1,1.3-2.3,1.9-3.5
		l-0.6-0.7L558.7,16.6z"/>
	<path d="M560.5,56.4c-1.4-1.4-2.9-2.8-4.4-4.1c0.7-0.7,1.4-1.3,2-2h10.8c-1,2.1-2.2,4.1-3.5,5.9l11.3-0.4c1.8-3.4,3.3-7.2,4.4-11.5
		l-6.1-2.2l-1.2,0.2l-30.4,14.5c0.1,0.1,0.2,0.2,0.3,0.3L560.5,56.4z"/>
	<path d="M505.5,52.7h11c-0.6,1-1.2,2-1.9,2.9l4-0.8l-6.3-10.7h-6.8V52.7L505.5,52.7z"/>
	<polygon points="509.3,39.1 507.2,35.4 507.2,39.1 	"/>
	<polygon points="520.3,19.1 522.3,19.7 520.3,18.5 	"/>
	<polygon points="515.1,17.7 515.1,15.5 507.2,10.8 507.2,15.4 	"/>
	<polygon points="520.3,19.3 515.1,19.3 515.1,17.7 507.2,15.4 507.2,18.2 524.6,26.4 522.3,19.7 520.3,19.1 	"/>
	<path d="M563.5,4.7L563.5,4.7L563.5,4.7z"/>
	<path d="M578.5,11.1l-6.2-2.5l-1.7,0.2h-3.8l8.4,10.5C576.5,16.9,577.6,14.1,578.5,11.1z"/>
	<path d="M564,5.4c0.1-0.2,0.2-0.4,0.3-0.6l-0.8-0.1l-0.1,0.1L564,5.4z"/>
	<polygon points="515.1,31.4 515.1,29.2 507.2,22.8 507.2,35.4 509.3,39.1 519.1,39.1 519.1,44.1 512.3,44.1 518.6,54.9 523.8,36.2 
		517.9,31.4 	"/>
	<polygon points="507.2,22.8 515.1,29.2 515.1,26.5 520.3,26.5 520.3,31.4 517.9,31.4 523.8,36.2 524.6,26.4 507.2,18.2 	"/>
	<polygon points="522.3,54.9 523.8,36.2 518.6,54.9 	"/>
	<path d="M534.4,56.2c-1.5-1.2-2.9-2.5-4.2-3.5h8.4l-7.7-8.6h-2.3v-2.6l-4.8-5.4l-1.5,18.7L534.4,56.2z"/>
	<polygon points="522.3,19.7 525.3,25.7 523.8,19.7 	"/>
	<polygon points="524.6,26.4 525.3,25.7 522.3,19.7 	"/>
	<path d="M549.2,12.6l14.3-7.8L552,9.1C551.2,10.2,550.2,11.4,549.2,12.6z"/>
	<polygon points="532.3,19.3 527.3,19.3 527.3,18.4 523.8,19.7 525.3,25.7 540.6,17.3 540.6,13.4 532.3,16.5 	"/>
	<polygon points="523.8,36.2 525.3,25.7 524.6,26.4 	"/>
	<polygon points="528.6,41.5 528.6,39.1 532.6,39.1 528.4,31.4 527.3,31.4 527.3,29.3 525.3,25.7 523.8,36.2 	"/>
	<path d="M541.2,54.7l-0.8-1.4l-0.6,0.3C540.2,53.8,540.7,54.2,541.2,54.7z"/>
	<polygon points="538.6,52.7 540.1,52.7 535.4,44.1 530.9,44.1 	"/>
	<path d="M541.7,44.1h-6.3l4.7,8.6h1.2l-1,0.5l0.8,1.4c0.5,0.5,1.1,1.1,1.7,1.7l2.4-6.1c-1.1,0.8-2.3,1.5-3.6,2.3L541.7,44.1
		L541.7,44.1z"/>
	<path d="M540.6,19.8v-2.6l-15.3,8.4l2,3.6v-2.8h5.1v4.9h-3.9l4.2,7.7h8v-2.6c1.7,1.7,3.8,4.7,4.8,6.7c1-0.3,2.1-0.7,3.1-1.1
		l4.6-11.5c-3.8,2.5-8.1,4.4-12.5,5.6V21.6c1.8,1.3,3.8,3.4,4.8,5c1.3-0.9,2.5-1.8,3.7-2.7c1.7,1.5,3.4,3.2,4.8,4.7l3.3-8.3
		c-0.7-0.6-1.5-1.3-2.2-1.9c0.7-0.7,1.1-1.3,1.7-2h2l4.7-11.8l-14.3,7.8C546.8,15.2,544,17.7,540.6,19.8z"/>
	<path d="M165.6,77.6L165.6,77.6L165.6,77.6L165.6,77.6z"/>
	<path d="M165.7,77.6L165.7,77.6l0.6-0.5C166.1,77.3,165.9,77.4,165.7,77.6z"/>
	<path d="M165.5,77.7h0.1H165.5C165.6,77.6,165.6,77.7,165.5,77.7z"/>
	<path d="M115.7,69.7L115.7,69.7L115.7,69.7L115.7,69.7z"/>
	<polygon points="138.8,33.8 135.2,30.4 132.4,31.6 	"/>
	<path d="M128.2,34l8.3-0.9c0,0.2,0.1,0.5,0.1,0.7l2.3-0.1l-6.4-2.1L128.2,34z"/>
	<polygon points="138.8,33.8 145.9,26.1 135.2,30.4 	"/>
	<polygon points="124.4,19.6 124.2,19.4 124.4,19.7 	"/>
	<polygon points="132.4,31.6 135.2,30.4 129.3,24.5 127.8,24.7 	"/>
	<polygon points="124.4,19.5 124.2,19.4 124.4,19.6 	"/>
	<path d="M129.3,24.5l5.9,5.9l10.7-4.3l-10.3-3.2c0,0.3,0,0.7,0.1,1L129.3,24.5z"/>
	<polygon points="106.2,27.1 110.2,17.9 105.9,21.3 	"/>
	<polygon points="106.1,3.3 106.1,4 108.5,3.3 	"/>
	<polygon points="110.2,17.9 111.9,3.3 108.5,3.3 106.1,4 106.1,13.1 	"/>
	<polygon points="168.1,27.7 169.9,21.2 169.9,20.7 165.2,21.1 163.5,23.4 	"/>
	<path d="M158,73.1l7.6,4.5l0,0l-2.7-8.5L158,73.1z"/>
	<path d="M144.6,8.7l-4.2-5h-5.8c0.2,5.2,0.4,10.1,0.7,14.8l9.8-0.9C144.9,14.7,144.7,11.7,144.6,8.7z"/>
	<polygon points="124.4,19.4 124.4,19 124.2,19.4 	"/>
	<path d="M145.9,26.1l2.1-3.4l-2.6,0.3c-0.1-1.8-0.2-3.6-0.3-5.4l-9.8,0.9c0.1,1.5,0.2,3,0.3,4.5L145.9,26.1z"/>
	<polygon points="124.4,19.5 124.4,19.4 124.2,19.4 	"/>
	<path d="M99.5,43.6c-0.8,0.2-1.6,0.4-2.3,0.5l0.8,4.3L99.5,43.6z"/>
	<path d="M165.7,77.6c0.2-0.2,0.4-0.3,0.6-0.5l0.3-0.3c0.6-0.7,1.2-1.5,1.8-2.5l-5.4-5.1L165.7,77.6z"/>
	<polygon points="109.6,78 110.2,76.7 100.7,77.4 	"/>
	<path d="M109.6,78.1L109.6,78.1v-0.2V78.1z"/>
	<path d="M160.9,10.1c-0.1-0.1-0.3-0.3-0.4-0.4l-4.9,8.3L160.9,10.1z"/>
	<path d="M164.5,14c-1-1.2-2.3-2.6-3.6-4l-5.3,7.8L164.5,14z"/>
	<path d="M147.6,42.2c-0.5-2.5-0.9-5.2-1.2-8l-7.6-0.4l5.2,18.3L147.6,42.2z"/>
	<path d="M146.4,34.2c-0.1-0.7-0.2-1.3-0.2-2l2.9-0.3l-3.2-5.8l-7,7.6L146.4,34.2z"/>
	<polygon points="106.1,17.7 110.2,17.9 106.1,13.1 	"/>
	<polygon points="106.1,18.8 100.6,18.8 105.9,21.3 110.2,17.9 106.1,17.7 	"/>
	<polygon points="106.1,27.8 106.1,36 115.7,32 115.7,29.8 106.2,27.1 105.9,27.8 	"/>
	<polygon points="115.7,29.8 115.7,27.8 116.8,27.8 110.2,17.9 106.2,27.1 	"/>
	<polygon points="120.2,27.8 124.2,19.4 118.2,18.8 115.7,18.8 115.7,18.5 110.2,17.9 116.8,27.8 	"/>
	<polygon points="126.3,34.2 127,34.2 126.3,33.8 	"/>
	<polygon points="124.6,41.7 124.1,37.7 120.7,38.5 122.7,46.6 	"/>
	<path d="M109.6,78l5-3.1c0.1-0.2,0.3-0.5,0.4-0.7l-4.7,2.7L109.6,78z"/>
	<path d="M109.7,78.1c0.9-0.2,1.6-0.6,2.3-1c1.1-0.6,2-1.3,2.5-2.3l-5,3.1L109.7,78.1z"/>
	<path d="M115.7,69.7c0-0.3,0-0.7,0-1v-2.3l-2.1-1.2L115.7,69.7z"/>
	<path d="M129.6,76.9c0.7-0.3,1.5-0.7,2.2-1.1l-7.6-4.5C126.2,73,128.3,75.1,129.6,76.9z"/>
	<polygon points="168.1,27.7 163.5,23.4 160.1,30.8 162.3,30.6 	"/>
	<path d="M152.6,44.5c-1.1,1.6-2.3,3.2-3.5,4.7c-0.5-2.2-1-4.5-1.5-7l-3.6,9.9l10.7,1.8L152.6,44.5z"/>
	<path d="M152.6,44.5l2,9.4l4.7-21l-0.1-0.1C157.5,36.8,155.3,40.8,152.6,44.5z"/>
	<path d="M97.2,44.1c-0.8,0.2-1.6,0.3-2.3,0.5l0.7,2.7l2.4,1.1L97.2,44.1z"/>
	<polygon points="95.6,47.3 96.5,50.5 98,48.4 	"/>
	<path d="M162,47.3c2-3.1,3.8-6.4,5.2-9.6l-7.9-4.8l-4.7,21L162,47.3z"/>
	<path d="M167.7,57.7c-0.5-0.3-1-0.7-1.4-1l-0.3,1.2L167.7,57.7z"/>
	<polygon points="149.9,31.8 148.9,26.4 145.9,26.1 149.1,31.9 	"/>
	<polygon points="150,22.6 148,22.8 145.9,26.1 148.9,26.4 	"/>
	<path d="M165.9,15.8c-0.4-0.6-0.9-1.2-1.5-1.8l-8.9,3.9l4.1,2.3L165.9,15.8z"/>
	<polygon points="159.8,30.8 160.1,30.8 163.5,23.4 161.9,21.4 161.7,21.5 	"/>
	<polygon points="165.2,21.1 161.9,21.4 163.5,23.4 	"/>
	<polygon points="113.5,65.2 115.7,64.3 115.7,60.6 	"/>
	<path d="M122.2,69.7l0.2-0.6c-0.2,0.1-0.5,0.2-0.7,0.3C121.9,69.5,122,69.6,122.2,69.7z"/>
	<polygon points="115.7,66.4 115.7,64.3 113.5,65.2 	"/>
	<path d="M122.2,47.4c0.2-0.1,0.4-0.1,0.6-0.2l-0.1-0.7L122.2,47.4z"/>
	<path d="M129.1,65.9c-2.2,1.2-4.4,2.3-6.7,3.2l-0.2,0.6c0.6,0.5,1.3,1,2,1.6l7.6,4.5c0.9-0.5,1.9-1,2.8-1.5L129.1,65.9z"/>
	<path d="M122.8,47.2c0.5-0.1,1-0.3,1.5-0.4l-1.6-0.3L122.8,47.2z"/>
	<path d="M140,53.8l4-1.8l-4.8-1.7C139.4,51.6,139.7,52.7,140,53.8z"/>
	<polygon points="97.4,53.9 97.8,53.8 96.7,51 	"/>
	<polygon points="97.8,53.8 98.9,53.5 98,48.4 96.5,50.5 96.7,51 	"/>
	<polygon points="150.7,27.1 148.9,26.4 149.9,31.8 150.5,31.8 	"/>
	<polygon points="150.7,27.1 151.1,22.5 150,22.6 148.9,26.4 	"/>
	<polygon points="157.9,31 150.7,27.1 150.5,31.8 	"/>
	<path d="M155.6,17.9L155.6,17.9L155.6,17.9L155.6,17.9z"/>
	<polygon points="153.3,22.3 151.1,22.5 150.7,27.1 	"/>
	<polygon points="161.3,21.5 153.3,22.3 150.7,27.1 	"/>
	<path d="M158.1,21.3l1.6-1.1l-4.1-2.3l0,0C156.6,19.2,157.5,20.3,158.1,21.3z"/>
	<polygon points="159.8,30.8 161.7,21.5 161.3,21.5 150.7,27.1 157.9,31 	"/>
	<path d="M162.9,69.1l7.5,0.1c0.5-1.8,1-3.8,1.4-6.3l-5.8-5.2L162.9,69.1z"/>
	<path d="M168.3,74.3c0.7-1.3,1.4-3,2-5l-7.5-0.1L168.3,74.3z"/>
	<path d="M171.8,63c0.1-0.8,0.3-1.7,0.4-2.6c-1-0.5-2.8-1.5-4.6-2.7l-1.7,0.2L171.8,63z"/>
	<polygon points="110.2,17.9 115.7,13 115.7,4.3 113.8,3.3 111.9,3.3 	"/>
	<polygon points="115.7,13 110.2,17.9 115.7,18.5 	"/>
	<polygon points="124.1,18.8 118.2,18.8 124.2,19.4 	"/>
	<polygon points="124.4,19 124.4,18.8 124.1,18.8 124.2,19.4 	"/>
	<polygon points="170.5,27.4 169.9,21.2 168.1,27.7 	"/>
	<polygon points="105.9,47.2 98,48.4 98.9,53.5 103.1,52.5 	"/>
	<path d="M103.7,42.7c-1.4,0.3-2.8,0.7-4.1,1l-1.5,4.8l7.9-1.2L103.7,42.7z"/>
	<path d="M103.7,42.7l2.3,4.5l9.8-12.5V32l-9.6,4v6.1C105.3,42.3,104.5,42.5,103.7,42.7z"/>
	<polygon points="120.7,38.5 115.7,39.7 115.7,34.6 105.9,47.2 122.7,46.6 	"/>
	<path d="M115.7,49.2c2.2-0.6,4.4-1.2,6.6-1.8l0.5-0.8L106,47.2l9.8,4L115.7,49.2L115.7,49.2z"/>
	<path d="M147.6,8.9c1.1,1.1,2.3,2.4,3.4,3.8l-0.7-5.5L147.6,8.9z"/>
	<path d="M144.5,3.7h-4.1l4.2,5C144.6,7,144.5,5.4,144.5,3.7z"/>
	<path d="M151.1,12.6c1.6,1.8,3.2,3.6,4.5,5.3l0,0l-4.4-11.4l-0.8,0.6L151.1,12.6z"/>
	<path d="M160.5,9.6c-1.9-2-3.8-3.9-5.5-5.6l-3.8,2.5l4.4,11.4L160.5,9.6z"/>
	<path d="M96.9,70.1c1,1.9,1.9,4.6,2.4,7l1.4,0.3l-1.5-7.2C98.5,70.2,97.7,70.1,96.9,70.1z"/>
	<path d="M137.2,60.6c-2.6,2-5.3,3.8-8.1,5.3l5.5,8.4c3.6-2.1,7.1-4.6,10.3-7.4c0.4,0.7,0.7,1.3,1.1,2l6-7.9L137.2,60.6z"/>
	<path d="M141,57.4c-1.2,1.1-2.5,2.1-3.8,3.1l14.8,0.3l-7.9-8.8l-4,1.8C140.3,55.1,140.7,56.3,141,57.4z"/>
	<path d="M152,60.9l-6,7.9c1.6,2.6,3.5,4.7,5.6,6.4l6.5-2.1L152,60.9z"/>
	<polygon points="154.7,53.9 144,52.1 152,60.9 	"/>
	<path d="M160.4,67.2c-2.2-0.4-4.2-2-6-4.5l-2.4-1.8l6.1,12.2l4.9-4L160.4,67.2z"/>
	<polygon points="96,27.8 96.5,27.8 96,26.4 	"/>
	<polygon points="97.4,18.8 96,18.8 96,26.4 96.5,27.8 97.6,27.8 	"/>
	<polygon points="97.6,27.8 100.3,27.8 105.9,21.3 100.6,18.8 97.4,18.8 	"/>
	<polygon points="105.9,27.8 106.2,27.1 104.6,27.8 	"/>
	<polygon points="104.6,27.8 106.2,27.1 105.9,21.3 100.3,27.8 	"/>
	<path d="M166.5,76.8l-0.3,0.3C166.4,77,166.5,76.9,166.5,76.8z"/>
	<path d="M124.8,46.7c0.1,0,0.3-0.1,0.4-0.1l-0.6-4.8l-1.9,4.8L124.8,46.7z"/>
	<path d="M122.7,46.6l1.6,0.3c0.2,0,0.3-0.1,0.5-0.1L122.7,46.6z"/>
	<path d="M137,37.8l1.8-4l-2.3,0.1C136.7,35.2,136.8,36.5,137,37.8z"/>
	<path d="M144,52.1l-4.9-2.1c0,0.2,0.1,0.3,0.1,0.5L144,52.1z"/>
	<path d="M139.1,49.9L144,52l-5.2-18.3l-1.8,4C137.6,42.1,138.3,46.2,139.1,49.9z"/>
	<polygon points="123.6,27.7 124.2,19.4 120.2,27.8 123.4,27.8 	"/>
	<polygon points="126,31.8 126.3,33.8 127,34.2 127.4,34.1 	"/>
	<polygon points="123.6,27.7 123.4,27.8 123.7,27.8 	"/>
	<polygon points="123.8,27.8 124.4,27.8 124.4,19.7 124.2,19.4 123.6,27.7 	"/>
	<polygon points="127.8,24.7 125.3,24.9 125.7,28.6 132.4,31.6 	"/>
	<polygon points="123.8,27.8 123.6,27.7 123.7,27.8 	"/>
	<polygon points="128.2,34 132.4,31.6 125.7,28.6 126,31.8 127.4,34.1 	"/>
	<path d="M99.7,78.9c0.2,0,0.4,0,0.6,0l0.5-1.6L99.4,77C99.5,77.7,99.6,78.4,99.7,78.9z"/>
	<path d="M100.7,77.4l-0.5,1.6c3.4,0,6.1-0.1,8.3-0.6l1.1-0.4L100.7,77.4z"/>
	<path d="M108.5,78.4c0.4-0.1,0.7-0.2,1.1-0.2V78L108.5,78.4z"/>
	<polygon points="168.7,29.9 168.1,27.7 162.3,30.6 	"/>
	<polygon points="168.7,29.9 169.6,29.9 170.7,29.5 170.5,27.4 168.1,27.7 	"/>
	<polygon points="170.7,29.5 169.6,29.9 170.8,29.7 	"/>
	<polygon points="115.7,3.3 113.8,3.3 115.7,4.3 	"/>
	<path d="M151.6,75.1c1.7,1.3,3.6,2.3,5.7,3l0.8-5.1L151.6,75.1z"/>
	<path d="M165.5,77.7C165.6,77.7,165.6,77.6,165.5,77.7l-7.5-4.6l-0.8,5.1c0.6,0.2,1.2,0.3,1.8,0.5L165.5,77.7z"/>
	<path d="M161.1,78.9c1.5,0.1,3-0.2,4.4-1.3l-6.5,0.9C159.7,78.8,160.4,78.9,161.1,78.9z"/>
	<polygon points="106.1,61.6 106.1,63 110.8,63.9 	"/>
	<path d="M106.1,63v5.7c0,1.1-0.4,1.6-1.6,1.6c-0.8,0-2.9,0-5.3,0l1.5,7.2l10.1-13.4L106.1,63z"/>
	<polygon points="106.1,51.7 106.1,61.6 110.8,63.9 105.9,47.2 103.1,52.5 	"/>
	<polygon points="115.7,57.5 115.7,51.2 105.9,47.2 110.8,63.9 	"/>
	<polygon points="110.8,63.9 113.5,65.2 115.7,60.6 115.7,57.5 	"/>
	<polygon points="110.2,76.7 111.7,74 100.7,77.4 	"/>
	<polygon points="100.7,77.4 111.7,74 110.8,63.9 	"/>
	<path d="M110.2,76.7l4.7-2.7c0.2-0.4,0.3-0.9,0.4-1.5l-3.6,1.4L110.2,76.7z"/>
	<polygon points="111.7,74 113.5,65.2 110.8,63.9 	"/>
	<path d="M111.7,74l3.9-4.2c0,0,0,0,0-0.1l-2.1-4.5L111.7,74z"/>
	<path d="M115.3,72.6c0.2-0.8,0.3-1.8,0.3-2.9l-3.9,4.2L115.3,72.6z"/>
	<path d="M152,60.9l1-0.7c-0.1-0.2-0.3-0.5-0.4-0.7c1.5-1.6,2.9-3.3,4.3-5l-2.1-0.6L152,60.9z"/>
	<path d="M152.9,60.2l-1,0.7l2.4,1.8C153.9,62,153.4,61.2,152.9,60.2z"/>
	<path d="M162.2,66c-0.5,0.9-1,1.3-1.6,1.2c-0.1,0-0.2,0-0.3-0.1l2.6,1.9L162.2,66z"/>
	<path d="M156.8,54.5c1.9-2.3,3.6-4.8,5.2-7.2l-7.3,6.6L156.8,54.5z"/>
	<path d="M162.9,69.1l3-11.3l-2-0.8c-0.4,4.5-0.9,7.5-1.7,9L162.9,69.1z"/>
	<path d="M166.3,56.7c-0.8-0.6-1.6-1.3-2.1-1.9c-0.1,0.8-0.1,1.6-0.2,2.3l2,0.8L166.3,56.7z"/>
	<path d="M39.6,63.3l0.1-0.2h-0.4C39.4,63.2,39.5,63.2,39.6,63.3z"/>
	<polygon points="61.6,39.5 61.7,39.5 58.9,36.9 55.3,38.5 61.6,40.6 	"/>
	<polygon points="52.6,42 61.6,41.5 61.6,40.6 55.3,38.5 52.6,40.1 	"/>
	<polygon points="61.7,39.5 65.5,39.5 71.2,33.3 68.1,33.3 58.9,36.9 	"/>
	<polygon points="52.6,34.5 55.3,38.5 58.9,36.9 55.2,33.3 52.6,33.3 	"/>
	<polygon points="49.9,30.6 52.5,30.6 46.2,24.2 45.6,24.2 	"/>
	<polygon points="52.5,30.6 70.6,30.6 50,24.2 46.2,24.2 	"/>
	<polygon points="68.1,33.3 55.2,33.3 58.9,36.9 	"/>
	<polygon points="23.6,24.2 23.6,25.8 24.2,24.2 	"/>
	<polygon points="25.6,21.1 25.9,20.4 25,21.1 	"/>
	<polygon points="23.9,5.9 23.9,12.2 26.8,12.2 27.6,5.9 	"/>
	<polygon points="26.5,15.2 21.4,15.2 25.9,20.4 	"/>
	<polygon points="69.1,15.2 48,15.2 45.1,21.1 59.7,21.1 80.7,19.2 69.4,5.9 52.7,5.9 49.5,12.2 69.1,12.2 	"/>
	<polygon points="69.1,21.1 69.1,24.2 50,24.2 70.6,30.6 73.5,30.6 78.6,22.4 78.6,21.1 79.5,21.1 80.7,19.2 59.7,21.1 	"/>
	<polygon points="75.3,45.1 64.8,45.1 70.6,65.5 74.4,55.1 72.9,55.1 72.9,51.3 75.7,51.3 79,42.2 75.3,42 	"/>
	<polygon points="65.5,39.5 75.3,39.5 75.3,42 79,42.2 74.1,33.3 71.2,33.3 	"/>
	<polygon points="18,20 25.9,20.4 21.4,15.2 18,15.2 	"/>
	<polygon points="25,21.1 25.9,20.4 18,20 18,21.1 	"/>
	<polygon points="28,40 28,41.2 37.2,37.3 23.2,33.3 20.3,33.3 17.3,39.9 17.3,40 	"/>
	<path d="M16,45.9v0.3l0.7-0.3C16.6,45.9,16.3,45.9,16,45.9z"/>
	<polygon points="26.3,21.1 25.9,20.4 25.6,21.1 	"/>
	<polygon points="24.2,24.2 23.6,25.8 23.6,30.6 32.6,30.6 28.4,24.2 	"/>
	<polygon points="23.2,33.3 37.2,37.3 34.4,33.3 	"/>
	<polygon points="43.6,24.2 28.4,24.2 32.6,30.6 40.5,30.6 	"/>
	<polygon points="31.9,21.1 25.9,20.4 26.3,21.1 	"/>
	<polygon points="34.4,33.3 37.2,37.3 39.1,33.3 	"/>
	<path d="M47.9,44.5l-8.8,0.4l1.7,6.9c1.4-0.1,2.9-0.2,4.3-0.3L47.9,44.5z"/>
	<polygon points="41.6,55.1 42.4,58.3 43.7,55.1 	"/>
	<polygon points="43.5,40 37.2,37.3 37.8,40 	"/>
	<polygon points="81,51.3 79,42.2 75.7,51.3 	"/>
	<polygon points="70.6,65.5 72.9,65.9 72.9,63.1 83.6,63.1 81.9,55.1 74.4,55.1 	"/>
	<polygon points="84.9,51.3 84.9,40.6 79,42.2 81,51.3 	"/>
	<polygon points="85.8,63.1 87.5,55.1 81.9,55.1 83.6,63.1 	"/>
	<polygon points="89,63.1 89,55.1 87.5,55.1 85.8,63.1 	"/>
	<polygon points="79,42.2 77.3,33.3 74.1,33.3 	"/>
	<polygon points="80.1,21.1 80.7,19.2 79.5,21.1 	"/>
	<polygon points="78.6,26.1 78.6,22.4 73.5,30.6 77.4,30.6 	"/>
	<path d="M35.7,71.3c1.6,1.5,3,2.9,3.8,4.1l3.4-2.9l-5-6.2L35.7,71.3z"/>
	<path d="M38,66.3l5,6.2l2-1.7L44.1,67c-1.3-1.2-2.9-2.5-4.5-3.7L38,66.3z"/>
	<polygon points="39.7,63.1 43.4,63.1 42.4,58.3 	"/>
	<path d="M46.5,69.5c-0.6-0.8-1.5-1.6-2.4-2.5l0.8,3.8L46.5,69.5z"/>
	<polygon points="42.4,58.3 43.4,63.1 54.9,63.1 56.5,60.7 	"/>
	<path d="M52.8,73.4l5.1-2.3c-1.9,0-4.1,0-6.2-0.1C52,71.7,52.4,72.5,52.8,73.4z"/>
	<polygon points="54.9,63.1 63.3,63.1 63.3,68.8 70.6,65.5 56.5,60.7 	"/>
	<polygon points="79.4,33.3 77.3,33.3 79,42.2 	"/>
	<polygon points="80.5,21.1 80.7,19.2 80.1,21.1 	"/>
	<polygon points="78.6,30.6 78.6,26.1 77.4,30.6 	"/>
	<polygon points="84.9,40.6 84.9,35.5 80.8,33.3 79.4,33.3 79,42.2 	"/>
	<polygon points="85.2,21.1 85.2,20.3 80.7,19.2 80.5,21.1 	"/>
	<polygon points="84.9,33.3 80.8,33.3 84.9,35.5 	"/>
	<polygon points="31.7,15.2 26.5,15.2 25.9,20.4 	"/>
	<polygon points="26.8,12.2 35,12.2 41.2,6.7 39.6,5.9 27.6,5.9 	"/>
	<polygon points="41.2,6.7 35,12.2 42.3,12.2 	"/>
	<polygon points="44.1,21.1 42.9,15.2 31.7,15.2 25.9,20.4 31.9,21.1 	"/>
	<polygon points="42.3,12.2 49.5,12.2 52.7,5.9 42.3,5.9 41.2,6.7 	"/>
	<polygon points="45.1,21.1 48,15.2 42.9,15.2 44.1,21.1 	"/>
	<polygon points="14.6,59.9 14.6,63.1 18.1,63.1 20.2,59.1 	"/>
	<polygon points="18.2,55.1 14.6,55.1 14.6,59.9 20.2,59.1 	"/>
	<path d="M16.7,53.3c0.2,0,0.4,0,0.6,0l-0.8-1.5L16.7,53.3z"/>
	<path d="M37.2,37.3L28,41.2v4.2c-4.1,0.2-7.9,0.4-11.2,0.5l-0.7,0.3l0.5,5.5l0.8,1.5c2.4-0.2,5-0.3,7.8-0.5L37.2,37.3z"/>
	<polygon points="23.4,55.1 18.2,55.1 20.2,59.1 	"/>
	<path d="M40.8,51.8l-1.7-6.9l-2,0.1v-5h0.7l-0.7-2.6l-12,15.4C30,52.5,35.3,52.2,40.8,51.8z"/>
	<polygon points="41.6,55.1 23.4,55.1 20.2,59.1 42.4,58.3 	"/>
	<path d="M31.3,63.1l-0.4,0.4l7.1,2.9l1.7-3c-0.1-0.1-0.2-0.1-0.3-0.2h0.4l2.6-4.8l-22.2,0.8l9.8,4L31.3,63.1L31.3,63.1z"/>
	<polygon points="80.1,15.2 78.6,15.2 78.6,5.9 69.4,5.9 80.7,19.2 	"/>
	<polygon points="80.7,19.2 85.2,20.3 85.2,18.6 83.9,15.2 80.1,15.2 	"/>
	<polygon points="85.2,15.2 83.9,15.2 85.2,18.6 	"/>
	<path d="M54.8,79.6c6.2,0,10.6-0.1,13.8-1.4c0.9-0.3,1.6-0.7,2.2-1.2L54,76.6C54.4,77.6,54.6,78.7,54.8,79.6z"/>
	<path d="M72.9,70v-1.9l-2.3-2.6l-7.3,3.2v1c0,1.1-0.4,1.2-1.6,1.3c-0.6,0-2,0.1-3.8,0.1l-5.1,2.3c0.4,1,0.9,2.1,1.2,3.2L70.8,77
		C72.4,75.6,72.9,73.4,72.9,70z"/>
	<polygon points="72.9,65.9 70.6,65.5 72.9,68.1 	"/>
	<polygon points="18.9,33.3 17.3,33.9 17.3,39.9 20.3,33.3 	"/>
	<polygon points="17.3,33.3 17.3,33.9 18.9,33.3 	"/>
	<polygon points="43.7,55.1 42.4,58.3 55.7,59.1 54.1,55.1 	"/>
	<path d="M49.6,44.5l-1.7,0.1l-2.8,7.1c1.5-0.1,3-0.2,4.5-0.3V44.5z"/>
	<polygon points="56.5,60.7 55.7,59.1 42.4,58.3 	"/>
	<polygon points="59.2,51.3 62,45.1 61.6,45.1 61.6,41.5 52.6,42 52.6,51.3 	"/>
	<polygon points="55.7,59.1 57.5,55.1 54.1,55.1 	"/>
	<polygon points="56.5,60.7 70.6,65.5 55.7,59.1 	"/>
	<polygon points="59.2,51.3 63.3,51.3 63.3,55.1 57.5,55.1 55.7,59.1 70.6,65.5 64.8,45.1 62,45.1 	"/>
	<polygon points="43.8,30.6 44.3,24.2 43.6,24.2 40.5,30.6 	"/>
	<polygon points="43.6,33.3 39.1,33.3 37.2,37.3 	"/>
	<polygon points="47.5,40 43.6,33.3 37.2,37.3 43.5,40 	"/>
	<polygon points="48.5,33.3 43.6,33.3 43.6,33.3 48.5,35.5 	"/>
	<polygon points="49.9,30.6 45.6,24.2 44.3,24.2 43.8,30.6 	"/>
	<polygon points="55.3,38.5 52.6,34.5 52.6,37.3 	"/>
	<polygon points="52.6,40.1 55.3,38.5 52.6,37.3 	"/>
	<polygon points="48.5,35.5 43.6,33.3 47.5,40 48.5,40 	"/>
	<polygon points="41.9,5.9 39.6,5.9 41.2,6.7 	"/>
	<polygon points="42.3,5.9 41.9,5.9 41.2,6.7 	"/>
	<polygon points="20.2,59.1 18.1,63.1 21.4,63.1 	"/>
	<polygon points="20.2,59.1 21.4,63.1 30,63.1 	"/>
	<path d="M30.9,63.4l-2.5,2.1c2.1,1.4,4.4,3.2,6.4,5l3.2-4.2L30.9,63.4z"/>
	<path d="M34.8,70.5c0.3,0.3,0.6,0.5,0.9,0.8l2.3-5L34.8,70.5z"/>
</g>
</svg>
