<?xml version="1.0" encoding="utf-8"?>
<!-- Generator: Adobe Illustrator 24.1.3, SVG Export Plug-In . SVG Version: 6.00 Build 0)  -->
<svg version="1.1" id="Layer_1" xmlns="http://www.w3.org/2000/svg" xmlns:xlink="http://www.w3.org/1999/xlink" x="0px" y="0px"
	 viewBox="0 0 357.5 155.7" style="enable-background:new 0 0 357.5 155.7;" xml:space="preserve">
	 <g>

		<path class="st0" style="fill:#231916" d="M8.9,50.8c-1.9,2.3-3.5,4.7-4.8,7.3c-1.3,2.7-2.3,5.4-3,8.3c-1.5,6-1.5,12.2,0,18.2c0.7,2.9,1.7,5.7,3,8.3
			c2.6,5.2,6.4,9.8,11.1,13.3l2.1,1.6V43.1l-2.1,1.6C12.9,46.5,10.8,48.6,8.9,50.8z"/>
		<path class="st0"  style="fill:#231916" d="M322.6,50.8c1.9,2.3,3.5,4.7,4.8,7.3c1.3,2.7,2.3,5.4,3,8.3c1.5,6,1.5,12.2,0,18.2c-0.7,2.9-1.7,5.7-3,8.3
			c-1.3,2.6-2.9,5.1-4.8,7.3c-1.9,2.2-4,4.2-6.3,6l-2.1,1.6V43.1l2.1,1.6C318.6,46.5,320.7,48.6,322.6,50.8z"/>
		<path class="st0"  style="fill:#231916" d="M351.4,59.9c-1.6,0-3.1,0.6-4.2,1.7c-2.3,2.4-2.3,6.2,0,8.5c1.1,1.1,2.7,1.8,4.2,1.8c1.6,0,3.2-0.6,4.3-1.8
			c2.3-2.4,2.3-6.2,0-8.5C354.6,60.5,353,59.9,351.4,59.9z"/>
		<path class="st0"  style="fill:#231916" d="M351.4,79c-3.3,0-6,2.7-6,6c0,1.6,0.6,3.1,1.8,4.3c1.1,1.1,2.7,1.8,4.2,1.7c1.6,0,3.2-0.6,4.3-1.8
			c2.3-2.4,2.3-6.1,0-8.5C354.5,79.6,353,79,351.4,79z"/>
		<path class="st1" style="fill:#F9BE00"  d="M125.8,76.3c0,23.9,17.8,42.6,40.6,42.6s40.8-18.7,40.8-42.6V0h-15.2v45.1c-6.8-7-16.1-10.9-25.8-11
			C143.6,34,125.8,52.6,125.8,76.3z M141.4,76.3c0-15.3,11.2-27.7,25-27.7s25.1,12.4,25.1,27.7c0,15.5-11.3,28-25.1,28
			C152.4,104.4,141.4,92.1,141.4,76.3z"/>
		<path class="st0" style="fill:#231916"  d="M99.5,90.8c-4.9,9-12.4,13.3-22.7,13.3c-8.2,0.1-15.8-3.8-20.7-10.4l59.7-25.3l-0.2-1.1
			C111.1,47.7,94.8,34,76,34c-22.5,0-40.8,19.1-40.8,42.6c0,23.7,18.2,42.3,41.6,42.3c18.5,0,32.2-9.6,38.6-27.1l0.7-1.8H99.8
			L99.5,90.8z M50.8,76.5c0-17,13.1-27.6,25.2-27.6c8,0,15.7,4.5,20.4,11.9L51,79.9C50.9,78.8,50.8,77.6,50.8,76.5z"/>
		<path class="st0" style="fill:#231916"  d="M257,34c-22.9,0-40.8,18.7-40.8,42.6s17.8,42.5,40.5,42.5c9.6,0.2,18.9-3.7,25.5-10.7v3.8
			c0,13.7-6.9,28.3-26.2,28.3c-3.8,0-16.9-0.9-22-12.6l-0.4-0.8h-16.4l0.4,1.7c4.2,16.3,19.2,26.9,38.3,26.9
			c25,0,41.7-17.5,41.7-43.5V76.7C297.6,52.8,279.8,34,257,34z M257,104.4c-14.1,0-25.2-12.2-25.2-27.7s11.3-28,25.2-28
			s25.1,12.6,25.1,28C282.1,91.9,270.8,104.4,257,104.4z"/>
		</g>
</svg>
