<?xml version="1.0" encoding="utf-8"?>
<!-- Generator: Adobe Illustrator 24.1.3, SVG Export Plug-In . SVG Version: 6.00 Build 0)  -->
<svg version="1.1" id="Layer_1" xmlns="http://www.w3.org/2000/svg" xmlns:xlink="http://www.w3.org/1999/xlink" x="0px" y="0px"
	 viewBox="0 0 320 100" style="enable-background:new 0 0 320 100;" xml:space="preserve">
<g>
	<path d="M37.6,66.8l5-6c3.1,2.9,7.3,4.9,11.1,4.9c4.6,0,7-2,7-5c0-3.3-2.7-4.3-6.6-5.9l-5.9-2.5c-1.1-0.5-2.2-1-3.3-1.7
		c-1.6-1.1-3-2.4-4.1-4.2c-1-1.6-1.6-3.6-1.6-5.9c0-1.4,0.2-2.8,0.7-4c0.6-1.6,1.6-3.1,2.8-4.4c1.5-1.4,3.3-2.6,5.5-3.3
		c1.8-0.6,3.9-1,6.1-1c1.9,0,3.8,0.3,5.7,0.8c3,0.9,5.9,2.5,8.1,4.8l-4.4,5.5c-1.3-1.1-2.6-1.9-3.9-2.5c-1.6-0.7-3.4-1.1-5.4-1.1
		c-1.9,0-3.5,0.4-4.6,1.2c-1.1,0.8-1.7,1.9-1.7,3.4c0,3.1,3.1,4.3,6.9,5.7l5.7,2.4c5.3,2.2,8.8,5.6,8.8,11.9c0,7.2-6,13.3-16.1,13.3
		C47.7,73.2,41.8,70.9,37.6,66.8z"/>
	<path d="M78,28.5h26.9v7.3H86.8v10.1h15.4v7.3H86.8V65h18.8v7.3H78V28.5z"/>
	<path d="M138.9,72.4l-9-16.6h-6.1v16.6H115V28.5h15.3c9.2,0,16.5,3.2,16.5,13.3c0,6.6-3.3,10.7-8.4,12.6l10.3,18H138.9z
		 M123.8,48.8h5.7c5.6,0,8.7-2.4,8.7-7.1c0-4.7-3.1-6.3-8.7-6.3h-5.7V48.8z"/>
	<path d="M149.8,28.5h9.2l5.8,21.3c1.4,4.9,2.3,9.2,3.7,14.2h0.3c1.4-4.9,2.4-9.3,3.7-14.2l5.7-21.3h8.9l-13.4,43.8h-10.4
		L149.8,28.5z"/>
	<path d="M192.7,28.5h8.8v43.8h-8.8V28.5z"/>
	<path d="M210.7,50.6c0-14.5,9.3-22.9,20.4-22.9c5.6,0,10,2.7,12.9,5.6l-4.6,5.6c-2.2-2.1-4.7-3.7-8.1-3.7
		c-6.6,0-11.6,5.7-11.6,15.1c0,9.5,4.5,15.3,11.4,15.3c3.7,0,6.7-1.8,9.1-4.3l4.6,5.5c-3.6,4.2-8.3,6.5-14,6.5
		C219.7,73.2,210.7,65.3,210.7,50.6z"/>
	<path d="M252.4,28.5h26.9v7.3h-18.1v10.1h15.4v7.3h-15.4V65h18.8v7.3h-27.6V28.5z"/>
</g>
</svg>
