<?xml version="1.0" encoding="utf-8"?>
<!-- Generator: Adobe Illustrator 24.1.3, SVG Export Plug-In . SVG Version: 6.00 Build 0)  -->
<svg version="1.1" id="Layer_1" xmlns="http://www.w3.org/2000/svg" xmlns:xlink="http://www.w3.org/1999/xlink" x="0px" y="0px"
	 viewBox="0 0 625 1398" style="enable-background:new 0 0 625 1398;" xml:space="preserve">
<style type="text/css">
	.st0{opacity:0.8;fill:#F8C432;enable-background:new    ;}
	.st1{font-family:'NotoSans-Bold';}
	.st2{font-size:35px;}
	.st3{font-family:'NotoSansCJKtc-Light-B5pc-H';}
	.st4{font-size:23.5716px;}
	.st5{fill:#3E3A39;}
	.st6{font-family:'NotoSansCJKtc-Regular-B5pc-H';}
	.st7{font-size:24px;}
	.st8{fill:#304DA9;}
	text.link{fill:#304DA9;}
</style>
<polygon class="st0" points="334.5,56.8 589.9,23.9 589.9,166.9 334.5,148.5 "/>
<polygon class="st0" points="33.1,374 306.3,360.6 279.4,479.5 46.8,485.2 "/>
<polygon class="st0" points="327.6,372.5 591.6,370.8 573.7,497 316.1,481.1 "/>
<polygon class="st0" points="295.6,660.3 45.6,697.5 55.8,810.9 303.9,810.9 "/>
<polygon class="st0" points="326.9,646.9 591.2,665.5 588.9,793.9 326.9,793.9 "/>
<polygon class="st0" points="306.5,1066.9 53.6,1100.2 58.6,1291.9 307.5,1268.6 "/>
<g>
	<text transform="matrix(1 0 0 1 446.7375 62.3098)" class="st1 st2">Brand</text>
	<text transform="matrix(1 0 0 1 361.1375 96.3098)" class="st1 st2">marketing</text>
</g>
<g>
	<text transform="matrix(1 0 0 1 50.5585 420.3823)" class="st1 st2">Community </text>
	<text transform="matrix(1 0 0 1 50.5585 454.3823)" class="st1 st2">WOM</text>
</g>
<g>
	<text transform="matrix(1 0 0 1 449.7374 423.8825)" class="st1 st2">brand</text>
	<text transform="matrix(1 0 0 1 337.6374 457.8825)" class="st1 st2">consultant</text>
</g>
<g>
	<text transform="matrix(1 0 0 1 334.8605 703.1638)" class="st1 st2">Digital </text>
	<text transform="matrix(1 0 0 1 334.8605 737.1638)" class="st1 st2">technology</text>
</g>
<g>
	<text transform="matrix(1 0 0 1 173.4918 1139.1229)" class="st1 st2">Media </text>
	<text transform="matrix(1 0 0 1 67.3918 1173.1229)" class="st1 st2">purchasing</text>
	<text transform="matrix(1 0 0 1 71.0918 1207.1229)" class="st1 st2">&amp;execution</text>
</g>
<g>
	<text transform="matrix(1 0 0 1 203.0162 719.3826)" class="st1 st2">RWD</text>
	<text transform="matrix(1 0 0 1 136.1162 753.3826)" class="st1 st2">Website</text>
</g>
<g>
	<text transform="matrix(1 0 0 1 402.8605 137.4718)" class="st3 st4">品牌全傳播行銷</text>
</g>
<g>
	<text transform="matrix(1 0 0 1 142.8607 451.8823)" class="st3 st4">社群口碑行銷</text>
</g>
<g>
	<text transform="matrix(1 0 0 1 353.8603 420.3821)" class="st3 st4">品牌顧問</text>
</g>
<g>
	<text transform="matrix(1 0 0 1 133.8605 786.882)" class="st3 st4">RWD 網站建置</text>
</g>
<g>
	<text transform="matrix(1 0 0 1 339.4054 771.8824)" class="st3 st4">數位科技應用</text>
</g>
<g>
	<text transform="matrix(1 0 0 1 75.8605 1247.8824)" class="st3 st4">媒體採購與購買執行</text>
</g>
<g>
	<g>
		<text transform="matrix(1 0 0 1 322.0891 209.3042)" class="st5 st6 st7">． 市場觀察定位</text>
		<text transform="matrix(1 0 0 1 322.0891 244.3042)" class="st5 st6 st7">． 消費者行為觀察分析</text>
		<text transform="matrix(1 0 0 1 322.0891 279.3042)" class="st5 st6 st7">． 全通路操作策略</text>
		<text transform="matrix(1 0 0 1 322.0891 314.3042)" class="st5 st6 st7">． 創意策略及應用</text>
	</g>
</g>
<g>
	<g>
		<text transform="matrix(1 0 0 1 41.3826 517.2032)" class="st5 st6 st7">． FB / IG 內容經營</text>
		<text transform="matrix(1 0 0 1 41.3826 552.2032)" class="st5 st6 st7">． 部落客行銷</text>
		<text transform="matrix(1 0 0 1 41.3826 587.2032)" class="st5 st6 st7">． 直播主 / 網紅行銷</text>
		<text transform="matrix(1 0 0 1 41.3826 622.2032)" class="st5 st6 st7">． KOL 意見領袖行銷</text>
	</g>
</g>
<g>
	<g>
		<text transform="matrix(1 0 0 1 39.3827 857.6155)" class="st5 st6 st7">． 企業形象網站</text>
		<text transform="matrix(1 0 0 1 39.3827 892.6155)" class="st5 st6 st7">． 活動網站 / 網頁</text>
		<text transform="matrix(1 0 0 1 39.3827 927.6155)" class="st5 st6 st7">． RWD 跨螢網站</text>
		<text transform="matrix(1 0 0 1 39.3827 962.6155)" class="st5 st6 st7">． AWS 主機維運</text>
		<text transform="matrix(1 0 0 1 39.3827 997.6155)" class="st5 st6 st7">． SEO(Search Engine</text>
		<text transform="matrix(1 0 0 1 39.3827 1033.9132)" class="st5 st6 st7"> </text>
		<text transform="matrix(1 0 0 1 84.2827 1033.9132)" class="st5 st6 st7">      Optimization)</text>
	</g>
</g>
<g>
	<g>
		<text transform="matrix(1 0 0 1 322.8605 844.2255)" class="st5 st6 st7">． AR / VR 創意製作</text>
		<text transform="matrix(1 0 0 1 322.8605 879.2255)" class="st5 st6 st7">． FB / IG 濾鏡製作</text>
		<text transform="matrix(1 0 0 1 322.8605 914.2255)" class="st5 st6 st7">． 客製短網址服務</text>
		<text transform="matrix(1 0 0 1 322.8605 949.2255)" class="st5 st6 st7">． 圖像辨識</text>
		<text transform="matrix(1 0 0 1 322.8605 984.2255)" class="st5 st6 st7">． Chatbot 對話機器人</text>
	</g>
</g>
<g>
	<g>
		<text transform="matrix(1 0 0 1 322.4053 1090.257)" class="st5 st6 st7">． Google &amp; Youtube</text>
		<text transform="matrix(1 0 0 1 322.4053 1125.257)" class="st5 st6 st7">． Facebook &amp;  Instag</text>
		<text transform="matrix(1 0 0 1 339.4054 1161.5547)" class="st5 st6 st7">ram</text>
		<text transform="matrix(1 0 0 1 322.4053 1195.257)" class="st5 st6 st7">． LINE (LAP)</text>
		<text transform="matrix(1 0 0 1 322.4053 1230.257)" class="st5 st6 st7">． 聯播及影音廣告</text>
		<text transform="matrix(1 0 0 1 322.4053 1265.257)" class="st5 st6 st7">． 廣編及新聞廣告</text>
		<text transform="matrix(1 0 0 1 322.4053 1300.257)" class="st5 st6 st7">． 關鍵字廣告</text>
		<text transform="matrix(1 0 0 1 322.4053 1335.257)" class="st5 st6 st7">． 媒體策略、成效優化及</text>
		<text transform="matrix(1 0 0 1 322.4053 1371.5547)" class="st5 st6 st7">  </text>
		<text transform="matrix(1 0 0 1 339.8053 1370.5547)" class="st5 st6 st7">追蹤</text>
	</g>
</g>
<g>
	<a href="https://www.design-ebg.com/" target="_blank">
	<g>
		<text transform="matrix(1 0 0 1 322.089 524.329)" class="st8 st6 st7 link">． 品牌審視</text>
		<text transform="matrix(1 0 0 1 322.089 559.329)" class="st8 st6 st7 link">． 品牌設計</text>
		<text transform="matrix(1 0 0 1 322.089 594.329)" class="st8 st6 st7 link">． 品牌系統建立</text>
	</g>
	</a>
</g>
<path class="st0" d="M59.4,32.2c0,2,0,150.1,0,150.1L299,148.7v-95L59.4,32.2z"/>
<text transform="matrix(1 0 0 1 46.5582 48.0096)" class="st1 st2">CREATIVE</text>
<text transform="matrix(1 0 0 1 46.5582 82.0096)" class="st1 st2">EXECUTIVE</text>
<text transform="matrix(1 0 0 1 46.5582 116.0096)" class="st1 st2">PRODUCTION</text>
<g>
	<text transform="matrix(1 0 0 1 49.5573 152.7415)" class="st3 st4">創意執行製作</text>
</g>
<text transform="matrix(1 0 0 1 41.5572 214.3044)" class="st5 st6 st7">． 短影片 / TVCF 廣告影片</text>
<text transform="matrix(1 0 0 1 41.5572 249.3044)" class="st5 st6 st7">． 腳本發想 / 拍攝 / 後製</text>
<text transform="matrix(1 0 0 1 41.5572 284.3044)" class="st5 st6 st7">． 產品攝影 / 人物攝影</text>
<text transform="matrix(1 0 0 1 41.5572 319.3044)" class="st5 st6 st7">． 媒體素材製作</text>
</svg>
