<?xml version="1.0" encoding="utf-8"?>
<!-- Generator: Adobe Illustrator 24.1.3, SVG Export Plug-In . SVG Version: 6.00 Build 0)  -->
<svg version="1.1" id="Layer_1" xmlns="http://www.w3.org/2000/svg" xmlns:xlink="http://www.w3.org/1999/xlink" x="0px" y="0px"
	 viewBox="0 0 431.6 377.9" style="enable-background:new 0 0 431.6 377.9;" xml:space="preserve">
<style type="text/css">
	.st0{fill:#EBEBEC;}
	.st1{opacity:0.8;fill:#F8C432;enable-background:new    ;}
	.st2{fill:none;stroke:#3E3A39;stroke-width:1.1;stroke-miterlimit:10;}
	.st3{font-family:'NotoSans-Bold';}
	.st4{font-size:56px;}
	.st5{letter-spacing:1;}
	.st6{font-family:'NotoSansCJKtc-Light-B5pc-H';}
	.st7{font-size:25.14px;}
	.st8{fill:#3E3A39;}
	.st9{font-family:'NotoSansCJKtc-Regular-B5pc-H';}
	.st10{font-size:20px;}
</style>
<polygon class="st0" points="6.4,49.7 402.7,0 402.7,220.7 6.4,188.3 "/>
<g id="Layer_2_1_">
	<g id="設計">
		<polygon class="st1" points="6.4,39 402.7,33.7 402.7,254.4 6.4,234.2 		"/>
		<polyline class="st2" points="28.1,177.7 13.8,172.6 25.6,133 		"/>
		<polyline class="st2" points="406.1,133 357.6,294.9 82.7,197.1 		"/>
		<polyline class="st2" points="46.8,62.4 65.2,0.7 380,90.2 		"/>
		<text transform="matrix(1 0 0 1 30.72 128.2)" class="st3 st4 st5">BRAND</text>
		<text transform="matrix(1 0 0 1 30.72 189.83)" class="st3 st4 st5">MARKETING</text>
		<text transform="matrix(1 0 0 1 255.64 118.62)" class="st6 st7">品牌全傳播行銷</text>
		<text transform="matrix(1 0 0 1 0 266.92)" class="st8 st9 st10">．市場觀察定位</text>
		<text transform="matrix(1 0 0 1 0 296.92)" class="st8 st9 st10">．消費者行為觀察分析</text>
		<text transform="matrix(1 0 0 1 0 326.92)" class="st8 st9 st10">．全通路操作策略</text>
		<text transform="matrix(1 0 0 1 0 356.92)" class="st8 st9 st10">．創意策略及應用</text>
	</g>
</g>
</svg>
