<?xml version="1.0" encoding="utf-8"?>
<!-- Generator: Adobe Illustrator 24.1.3, SVG Export Plug-In . SVG Version: 6.00 Build 0)  -->
<svg version="1.1" id="Layer_1" xmlns="http://www.w3.org/2000/svg" xmlns:xlink="http://www.w3.org/1999/xlink" x="0px" y="0px"
	 viewBox="0 0 442.6 348.6" style="enable-background:new 0 0 442.6 348.6;" xml:space="preserve">
<style type="text/css">
	.st0{fill:#EBEBEC;}
	.st1{opacity:0.8;fill:#F8C432;enable-background:new    ;}
	.st2{fill:none;stroke:#3E3A39;stroke-width:1.1;stroke-miterlimit:10;}
	.st3{font-family:'NotoSansCJKtc-Bold-B5pc-H';}
	.st4{font-size:56px;}
	.st5{letter-spacing:1;}
	.st6{font-family:'NotoSansCJKtc-Light-B5pc-H';}
	.st7{font-size:25.25px;}
	.st8{font-family:'NotoSansCJKtc-Regular-B5pc-H';}
	.st9{font-size:20px;}
</style>
<polygon class="st0" points="23.2,0.9 431,84 415.4,231.2 1.6,205.7 "/>
<g id="Layer_2_1_">
	<g id="設計">
		<polygon class="st1" points="18.4,30 442.6,27.2 413.8,229.8 0,204.3 		"/>
		<polyline class="st2" points="403.4,178 403.7,181.4 41,239 34.8,185 		"/>
		<polyline class="st2" points="27.4,119.8 23.4,84.8 389.5,0.7 394,57.5 		"/>
		<text transform="matrix(1 0 0 1 214.24 113.09)" class="st3 st4 st5">BRAND</text>
		<text transform="matrix(1 0 0 1 23.95 172.76)" class="st3 st4 st5">CONSULTANT</text>
		<text transform="matrix(1 0 0 1 83.44 101.19)" class="st6 st7">品牌顧問</text>
		<text transform="matrix(1 0 0 1 304.97 267.62)" class="st8 st9">．品牌審視</text>
		<text transform="matrix(1 0 0 1 304.97 297.62)" class="st8 st9">．品牌設計</text>
		<text transform="matrix(1 0 0 1 264.97 327.62)" class="st8 st9">．品牌系統建立</text>
	</g>
</g>
</svg>
