<?xml version="1.0" encoding="utf-8"?>
<!-- Generator: Adobe Illustrator 24.1.3, SVG Export Plug-In . SVG Version: 6.00 Build 0)  -->
<svg version="1.1" id="Layer_1" xmlns="http://www.w3.org/2000/svg" xmlns:xlink="http://www.w3.org/1999/xlink" x="0px" y="0px"
	 viewBox="0 0 450.1 429.7" style="enable-background:new 0 0 450.1 429.7;" xml:space="preserve">
<style type="text/css">
	.st0{fill:#EBEBEC;}
	.st1{opacity:0.8;fill:#F8C432;enable-background:new    ;}
	.st2{fill:none;stroke:#3E3A39;stroke-width:1.12;stroke-miterlimit:10;}
	.st3{font-family:'NotoSans-Bold';}
	.st4{font-size:56px;}
	.st5{letter-spacing:1;}
	.st6{font-family:'NotoSansCJKtc-Light-B5pc-H';}
	.st7{font-size:25.14px;}
	.st8{fill:#3E3A39;}
	.st9{font-family:'NotoSansCJKtc-Regular-B5pc-H';}
	.st10{font-size:20px;}
</style>
<polygon class="st0" points="15.1,21.5 449.4,50.7 450.1,235.4 12.4,243.8 "/>
<g id="Layer_2_1_">
	<g id="設計">
		<polygon class="st1" points="15.1,24.7 449.4,19.4 450.1,251.9 12.4,224.1 		"/>
		<polyline class="st2" points="30.5,180.3 0.6,173 33.8,0.6 410.8,63.1 402.6,109.8 		"/>
		<text transform="matrix(1 0 0 1 30.48 99.97)" class="st3 st4 st5">DIGITAL </text>
		<text transform="matrix(1 0 0 1 30.48 161.6)" class="st3 st4 st5">TECHNOLOGY</text>
		<text transform="matrix(1 0 0 1 32.44 206.97)" class="st6 st7">數位科技應用</text>
		<text transform="matrix(1 0 0 1 30.48 288.77)" class="st8 st9 st10">．AR / VR 創意製作</text>
		<text transform="matrix(1 0 0 1 30.48 318.77)" class="st8 st9 st10">．FB / IG 濾鏡製作</text>
		<text transform="matrix(1 0 0 1 30.48 348.77)" class="st8 st9 st10">．客製短網址服務</text>
		<text transform="matrix(1 0 0 1 30.48 378.77)" class="st8 st9 st10">．圖像辨識</text>
		<text transform="matrix(1 0 0 1 30.48 408.77)" class="st8 st9 st10">．CHATBOT 對話機器人</text>
	</g>
</g>
</svg>
