<?xml version="1.0" encoding="utf-8"?>
<!-- Generator: Adobe Illustrator 24.1.3, SVG Export Plug-In . SVG Version: 6.00 Build 0)  -->
<svg version="1.1" id="Layer_1" xmlns="http://www.w3.org/2000/svg" xmlns:xlink="http://www.w3.org/1999/xlink" x="0px" y="0px"
	 viewBox="0 0 870.1 82.2" style="enable-background:new 0 0 870.1 82.2;" xml:space="preserve">

<g id="Layer_2_1_">
  <g>
		<path class="st0" d="M79.2,63.2H61.5v10c0,4.1-0.9,6.2-4,7.2s-7.8,1.2-15,1.2c-0.5-2.5-1.4-5-2.7-7.2c5.2,0.2,10.3,0.1,11.7,0.1
			s1.8-0.3,1.8-1.6v-9.7H22.7c3.9,2.5,7.5,5.4,10.7,8.6l-5.9,5.1c-2.5-3.3-8.3-7.7-13-10.7l3.5-3H0v-6.8h53.4v-4.9H40.9V33h33.4
			v18.5H61.5v4.9h17.7V63.2z M1.6,47.1c3.9-0.2,8.5-0.4,13.7-0.7v-7.5H3.2V33h32.4v5.9H23v7l14.2-1V51c-12.6,1-25.6,1.8-34.9,2.4
			L1.6,47.1z M59.8,19.3H4.2V14h55.5V9.6H9.9V4.1h57.8V14h6.7v5.3h-6.7v10H9.5v-5.6h50.2V19.3z M48.6,45.9h17.7v-7.4H48.6V45.9z"/>
		<path class="st0" d="M120.5,45.7c-3.6,1.1-7.3,2.2-11,3.3V72c0,4.2-0.9,6.3-3.4,7.5c-2.6,1.3-6.5,1.5-12.5,1.5
			c-0.5-2.6-1.3-5-2.4-7.4c3.8,0.1,7.6,0.1,8.6,0.1c1.2-0.1,1.7-0.4,1.7-1.8V51.1L90.8,54l-2.2-7.8c3.6-0.9,8-1.8,12.8-3.2V25.7
			H89.8v-7.6h11.7V1h8v17.1h10.1v7.6h-10.1v15.2c3.3-0.9,6.7-1.8,10-2.7L120.5,45.7z M164.3,37.2c-3.9,8.5-9.1,16.2-15.5,23
			c2.8,6.7,6.4,10.7,10.7,11.3c2.2,0.2,3.5-4.4,4.2-13.9c1.6,1.8,5.2,3.9,6.9,4.7c-2.1,15-6.1,19.4-10.7,18.9
			c-7.7-0.7-13.5-5.9-17.7-14.5c-5.5,4.9-11.6,8.9-18.2,12.1c-1.9-2.4-4.1-4.6-6.6-6.4c8-3.3,15.3-8,21.6-13.9
			c-2.4-7.5-4-16.5-5.4-26.9l-12.3,1.2l-0.8-7.8l12.5-1.1c-0.6-7.1-1.1-14.6-1.4-22.4h8.3c0.3,7.6,0.6,14.8,1.3,21.6l26.6-2.7
			l0.8,7.8L142,30.6c0.8,7.1,2.1,14.1,4,21c4.8-5.6,8.7-11.8,11.8-18.5L164.3,37.2z M156.2,19.7c-2.3-3.7-7.5-9.2-11.5-13.1l6.2-4
			c4.3,3.8,8.4,8,12.1,12.5L156.2,19.7z"/>
		<path class="st0" d="M255.7,47.1c-2.2,7.6-6.3,14.5-11.8,20.2c4.9,3.4,10.4,5.8,16.2,7.1c-1.9,1.9-3.6,4.1-4.9,6.6
			c-6.1-1.8-11.8-4.7-16.9-8.5c-5.1,3.8-10.7,6.9-16.6,9c-1.1-2.3-2.5-4.5-4.3-6.3v6.6h-7.7v-8.1c-10.6,1.1-21,2.4-29,3.3l-0.7-7.2
			c2.4-0.2,5.1-0.4,8-0.7V40.7h-7.2v-6.6h77.1v6.6h-40.5v34.1c5.5-1.6,10.7-4.2,15.3-7.7c-3.9-4.3-7.1-9.3-9.3-14.8l2.1-0.6h-5.1
			v-6.4h29l1.3-0.3L255.7,47.1z M199,30.6h-7.8V3.7h56.8v26.9h-8.2v-21H199V30.6z M195.3,40.7v4.9h14.4v-4.9H195.3z M195.3,56.5
			h14.4v-4.9h-14.4L195.3,56.5z M195.3,68.3c4.6-0.4,9.5-1,14.4-1.6v-4.2h-14.5L195.3,68.3z M235.8,13.8v5.1h-33.5v-5.1H235.8z
			 M202.3,23.1h33.5v5.1h-33.6L202.3,23.1z M230.6,51.7c1.9,4,4.5,7.6,7.6,10.7c3.2-3.1,5.8-6.7,7.7-10.7H230.6z"/>
		<path class="st0" d="M295.9,3.6c-2.3,6.4-5.1,12.5-8.3,18.5v59.5h-8.1V35.4c-2,2.8-4.2,5.5-6.5,8c-1.2-2.9-2.7-5.6-4.4-8.2
			c7.9-8.3,15.2-21.1,19.6-34L295.9,3.6z M349.6,70.7v7.9h-58v-7.9h25.3V57.8h-20.1v-7.7h20.1v-9h8.3v9h20.5v7.7h-20.5v12.9H349.6z
			 M316.9,19.3h-18.4v-7.7h18.4V0.9h8.3v10.7h18.9v7.7h-18.9v11.1H348v7.7h-53.6v-7.7h22.5L316.9,19.3z"/>
		<path class="st0" d="M396.7,80.2c-3.5-2.2-7.2-4.2-11-5.9c-5.7,2.8-13.5,5.3-24.6,7c-0.7-1.9-1.8-3.7-3.2-5.3
			c6.9-1,13.6-2.7,20.1-5c-4.3-1.8-8.7-3.2-12.9-4.5c1.5-1.7,2.9-3.6,4.2-5.5l-9.2,0.5l-0.6-5.8c3.9-0.1,8.6-0.3,13.7-0.5
			c1.3-2,2.5-4.2,3.6-6.3h-13.6V34.1h16.1V31h-13.7v-9.4h-6.2v-6.1h6.2V6.7h13.7V0.9h6.3v5.8h14.5v8.8h6.1v6.1h-6.1V31h-14.5v3.1
			h16.5v14.8h-18c-1.1,2-2.1,4-3.3,6l11.9-0.6v-3.7h6.5v3.3l3.7-0.2l-0.1,5.4l-4.1,0.3c-0.9,4.4-3.4,8.2-7,10.9
			c3.9,1.8,7.4,3.7,10.1,5.2L396.7,80.2z M370,43.7h9.3v-4.4H370V43.7z M372.4,12.1v3.9h7v-3.9L372.4,12.1z M379.3,25.5v-4.3h-7v4.3
			L379.3,25.5z M377.2,60.6c-0.7,1.1-1.4,2.1-2.2,3.2c3.2,1,6.8,2.4,10,3.7c3.1-1.7,5.6-4.4,7-7.7L377.2,60.6z M385.7,12.1v3.9h7.4
			v-3.9L385.7,12.1z M393.1,25.5v-4.3h-7.4v4.3L393.1,25.5z M385.7,39.3v4.4h9.4v-4.4H385.7z M433.3,24.6c-1.4,13-3.7,24-7.7,33.3
			c3.6,7.4,8.4,13.3,14.4,17.1c-1.9,1.6-3.5,3.6-4.8,5.7c-5.6-4-10.1-9.3-13.3-15.4c-3.9,6.8-9.3,12.6-15.8,16.9
			c-1.1-2.2-2.6-4.3-4.2-6.1c7.2-4.5,12.9-10.9,16.4-18.6c-2.6-6.7-4.6-13.7-5.9-20.8c-1.2,2.8-2.6,5.6-4.1,8.3
			c-1.6-1.9-3.4-3.5-5.3-5.1c5.9-9.2,9.1-23.8,10.8-38.5l7,0.9c-0.7,5.1-1.5,10.2-2.6,15.1h21.1v7.2L433.3,24.6z M416.6,24.6
			c1,8.1,2.8,16.1,5.3,23.8c2.2-7,3.5-15,4.5-23.9L416.6,24.6z"/>
		<path class="st0" d="M477.3,3.6c-2.4,6.3-5.2,12.4-8.5,18.2v59.7h-8.3V34.7c-2.2,3.1-4.6,6-7.2,8.7c-1.3-2.9-2.8-5.6-4.6-8.3
			c8.4-8.2,16.2-21,20.9-33.9L477.3,3.6z M528.8,70.2v7.8h-54.7v-7.8h30.5c3.6-13.9,6.2-28.1,7.9-42.3l8.5,1.4
			c-2.4,13.3-5.7,29.7-8.9,40.9H528.8z M525.5,24.2h-47.9v-7.9h47.9V24.2z M488.7,66.9c-1.2-12.4-3-24.6-5.5-36.8l7.3-1.7
			c2.8,11.9,4.9,23.9,6.3,36.1L488.7,66.9z M498.7,15.9c-0.9-4.7-2.3-9.4-4-13.9l7.7-2c1.7,4.4,3.2,8.9,4.4,13.6L498.7,15.9z"/>
		<path class="st0" d="M552.5,54.6c-0.2,1.1-0.3,2.3-0.5,3.4h33v23h-7.2v-3h-18.9v3.2h-7V59c-1.2,6.8-3.3,13.6-6.7,19.3
			c-2.2-1.4-4.5-2.6-7-3.4c6.9-10.8,7.7-25.8,7.7-35.7V28.1h37v26.5H552.5z M571,4.1c-0.4,0.8-1,1.5-1.5,2.3
			c6.7,4,14.4,8.7,18.6,11.9l-4.2,6.9c-4.2-3.4-12.2-8.6-18.9-12.9c-2.3,2.5-4.8,4.8-7.4,7h16.8v5.1h-18.2v-3.8
			c-4.2,3.4-8.7,6.3-13.5,8.9c-1.2-2.7-2.7-5.2-4.4-7.6c9.8-4.6,19.8-11.9,25.2-20.4L571,4.1z M575.5,48.7v-4.9h-22.1
			c-0.1,1.6-0.2,3.3-0.3,4.9H575.5z M553.5,34v4.7h22V34H553.5z M558.9,63.8v7.9h18.9v-8L558.9,63.8z M599.3,58.7h-7.7V10.3h7.7
			V58.7z M615.7,1.2v70.1c0,4.8-1.1,7.1-3.9,8.4c-2.7,1.4-7.3,1.7-14.4,1.7c-0.5-2.8-1.4-5.6-2.6-8.2c5,0.2,9.6,0.2,11,0.1
			s2-0.4,2-2v-70L615.7,1.2z"/>
		<path class="st0" d="M630.1,75.5c4.4-3.9,8.3-9.9,10.6-15.1l6.8,3c-2.6,5.5-6.2,12-10.7,16.1L630.1,75.5z M706.8,27.3h-75.2v-6.5
			H651c-0.7-2.2-1.5-4.3-2.5-6.3l5.9-1.3h-18.7V6.7h30c-0.7-1.7-1.4-3.5-2.3-5.1l7.9-1.5c1.3,2.1,2.4,4.3,3.3,6.6h27.6v6.4h-17.7
			l6,1.2c-1.3,2.4-2.5,4.5-3.6,6.4h19.9L706.8,27.3z M697,57h-29c4,2,7.7,4.5,11.2,7.4l-5,5.1c-2.8-2.8-8.9-6.8-13.7-9.4l3.3-3.1
			h-22.1V31H697V57z M688.9,36.5h-39.5v5h39.4L688.9,36.5z M688.9,46.6h-39.5v5h39.4L688.9,46.6z M678,74.2c3.4,0,4-1,4.4-8.1
			c2.2,1.2,4.6,2.1,7,2.6c-1,9.8-3.2,12.1-10.7,12.1h-15.4c-9.9,0-12.2-1.9-12.2-9.2V61.2h7.9v10.4c0,2.2,0.8,2.6,5.1,2.6H678z
			 M656,13.1c1.4,2.4,2.6,5,3.3,7.7h19.2c1.3-2.5,2.4-5,3.3-7.7L656,13.1z M696,59.5c4.4,4.7,9.2,11,11.3,15.4l-7,3.2
			c-1.8-4.3-6.4-10.9-10.7-15.7L696,59.5z"/>
		<path class="st0" d="M728.7,57.2v7.6h-7.3v-56h24.1v48.4H728.7z M728.7,16.5v33h9.4v-33H728.7z M742.6,75.6
			c3.4-4.8,5.5-12.6,6.5-19.6l6.2,1.8c-1.1,7.2-3,15.8-6.9,20.8L742.6,75.6z M797.9,45.4c0,0,0,2.1-0.1,3.1
			c-1.1,19.8-2.1,27.5-4.3,30.2c-1.3,1.6-3.3,2.6-5.4,2.6c-3.1,0.3-6.3,0.3-9.4,0.2c-0.2-2.4-0.9-4.8-1.9-7c2.5,0.3,5.1,0.4,7.7,0.3
			c1.2,0,2-0.1,2.6-1c1.4-1.6,2.4-7.1,3.2-21.5h-39.1V4.7h44.3v7h-17.2v6.9h15.2V25h-15.2v6.9h15.2v6.5h-15.2v7L797.9,45.4z
			 M764,56.7c1.4,5.7,2.1,11.6,2,17.4l-5.8,1c0.2-5.9-0.5-11.8-1.8-17.5L764,56.7z M758.9,11.7v6.9h11.6v-6.8L758.9,11.7z M770.5,25
			h-11.6v6.9h11.6L770.5,25z M758.9,45.4h11.6v-7h-11.6V45.4z M773.2,55.3c2.2,4.8,3.8,9.8,4.8,15l-5.5,1.7
			c-0.8-5.2-2.3-10.2-4.4-15L773.2,55.3z M782.8,67.6c-1.2-4.2-3-8.2-5.2-12l4.6-1.7c2.4,3.7,4.2,7.6,5.5,11.8L782.8,67.6z"/>
		<path class="st0" d="M860.3,25.6c0-5.7-4.3-9.5-12.4-9.5c-5.7,0-11,2.5-15.5,7.5l-5.8-5.4c5.6-6.3,12.9-10.5,22.4-10.5
			c12.5,0,21.1,6.2,21.1,17c0,13.1-20.2,15.3-18.4,28.2h-9C840.4,38.5,860.3,34.9,860.3,25.6z M847.3,59.9c4.5,0,8,3,8,7.7
			s-3.5,7.8-8,7.8s-7.9-3.1-7.9-7.8S842.9,59.9,847.3,59.9z"/>
	</g>
</g>
</svg>
