<?xml version="1.0" encoding="utf-8"?>
<!-- Generator: Adobe Illustrator 24.1.3, SVG Export Plug-In . SVG Version: 6.00 Build 0)  -->
<svg version="1.1" id="Layer_1" xmlns="http://www.w3.org/2000/svg" xmlns:xlink="http://www.w3.org/1999/xlink" x="0px" y="0px"
	 viewBox="0 0 438.7 356.2" style="enable-background:new 0 0 438.7 356.2;" xml:space="preserve">
<style type="text/css">
	.st0{fill:#EBEBEC;}
	.st1{opacity:0.8;fill:#F8C432;enable-background:new    ;}
	.st2{fill:none;stroke:#3E3A39;stroke-width:1.1;stroke-miterlimit:10;}
	.st3{font-family:'NotoSans-Bold';}
	.st4{font-size:56px;}
	.st5{letter-spacing:1;}
	.st6{font-family:'NotoSansCJKtc-Light-B5pc-H';}
	.st7{font-size:25.14px;}
	.st8{fill:#3E3A39;}
	.st9{font-family:'NotoSansCJKtc-Regular-B5pc-H';}
	.st10{font-size:20px;}
</style>
<polygon class="st0" points="52.9,24.6 437.3,3 418.5,194 20.5,203.1 "/>
<g id="Layer_2_1_">
	<g id="設計">
		<polygon class="st1" points="0,25.6 438.7,4 395.5,195 22,204.1 		"/>
		<polyline class="st2" points="40.2,51.8 44,0.6 424.7,57.4 354.8,214.1 125.2,174 		"/>
		<text transform="matrix(1 0 0 1 21.85 104.03)" class="st3 st4 st5">COMMUNITY </text>
		<text transform="matrix(1 0 0 1 21.85 165.66)" class="st3 st4 st5">WOM</text>
		<text transform="matrix(1 0 0 1 189.02 154.22)" class="st6 st7">社群口碑行銷</text>
		<text transform="matrix(1 0 0 1 16.46 245.26)" class="st8 st9 st10">．FB / IG 內容經營</text>
		<text transform="matrix(1 0 0 1 16.46 275.26)" class="st8 st9 st10">．部落客行銷</text>
		<text transform="matrix(1 0 0 1 16.46 305.26)" class="st8 st9 st10">．直播主 / 網紅行銷</text>
		<text transform="matrix(1 0 0 1 16.46 335.26)" class="st8 st9 st10">．KOL 意見領袖行銷</text>
	</g>
</g>
</svg>
