<?xml version="1.0" encoding="utf-8"?>
<!-- Generator: Adobe Illustrator 24.1.3, SVG Export Plug-In . SVG Version: 6.00 Build 0)  -->
<svg version="1.1" id="Layer_1" xmlns="http://www.w3.org/2000/svg" xmlns:xlink="http://www.w3.org/1999/xlink" x="0px" y="0px"
	 viewBox="0 0 625 1398" style="enable-background:new 0 0 625 1398;" xml:space="preserve">
<style type="text/css">
	.st0{opacity:0.8;fill:#F8C432;}
	.st1{font-family:'NotoSans-Bold';}
	.st2{font-size:35px;}
	.st3{font-family:'NotoSansCJKtc-Light-B5pc-H';}
	.st4{font-size:23.5716px;}
	.st5{fill:#3E3A39;}
	.st6{font-family:'NotoSansCJKtc-Regular-B5pc-H';}
	.st7{font-size:25px;}
	.st8{letter-spacing:39;}
	.st9{letter-spacing:-1;}
</style>
<polygon class="st0" points="334.5,56.8 589.9,23.9 589.9,166.9 334.5,148.5 "/>
<polygon class="st0" points="33.1,374 306.3,360.6 279.4,479.5 46.8,485.2 "/>
<polygon class="st0" points="327.6,372.5 591.6,370.8 573.7,497 316.1,481.1 "/>
<polygon class="st0" points="303.6,660.3 53.6,697.5 63.8,810.9 311.9,810.9 "/>
<polygon class="st0" points="326.9,646.9 591.2,665.5 588.9,793.9 326.9,793.9 "/>
<polygon class="st0" points="306.5,1066.9 53.6,1100.2 58.6,1291.9 307.5,1268.6 "/>
<g>
	<text transform="matrix(1 0 0 1 446.7375 62.3098)"><tspan x="0" y="0" class="st1 st2">Brand</tspan><tspan x="-85.6" y="34" class="st1 st2">marketing</tspan></text>
</g>
<g>
	<text transform="matrix(1 0 0 1 50.5585 420.3823)"><tspan x="0" y="0" class="st1 st2">Community </tspan><tspan x="0" y="34" class="st1 st2">WOM</tspan></text>
</g>
<g>
	<text transform="matrix(1 0 0 1 449.7374 423.8825)"><tspan x="0" y="0" class="st1 st2">brand</tspan><tspan x="-112.1" y="34" class="st1 st2">consultant</tspan></text>
</g>
<g>
	<text transform="matrix(1 0 0 1 334.8605 703.1638)"><tspan x="0" y="0" class="st1 st2">Digital </tspan><tspan x="0" y="34" class="st1 st2">technology</tspan></text>
</g>
<g>
	<text transform="matrix(1 0 0 1 173.4918 1139.1229)"><tspan x="0" y="0" class="st1 st2">Media </tspan><tspan x="-106.1" y="34" class="st1 st2">purchasing</tspan><tspan x="-102.4" y="68" class="st1 st2">&amp;execution</tspan></text>
</g>
<g>
	<text transform="matrix(1 0 0 1 203.0162 719.3826)"><tspan x="0" y="0" class="st1 st2">RWD</tspan><tspan x="-66.9" y="34" class="st1 st2">Website</tspan></text>
</g>
<g>
	<text transform="matrix(1 0 0 1 402.8605 137.4718)" class="st3 st4">品牌全傳播行銷</text>
</g>
<g>
	<text transform="matrix(1 0 0 1 142.8607 451.8823)" class="st3 st4">社群口碑行銷</text>
</g>
<g>
	<text transform="matrix(1 0 0 1 353.8603 420.3821)" class="st3 st4">品牌顧問</text>
</g>
<g>
	<text transform="matrix(1 0 0 1 133.8605 786.882)" class="st3 st4">RWD 網站建置</text>
</g>
<g>
	<text transform="matrix(1 0 0 1 339.4054 771.8824)" class="st3 st4">數位科技應用</text>
</g>
<g>
	<text transform="matrix(1 0 0 1 75.8605 1247.8824)" class="st3 st4">媒體採購與購買執行</text>
</g>
<g>
	<text transform="matrix(1 0 0 1 322.0891 210.6019)"><tspan x="0" y="0" class="st5 st6 st7">．市場觀察定位</tspan><tspan x="0" y="35" class="st5 st6 st7">．消費者行為觀察分析</tspan><tspan x="0" y="70" class="st5 st6 st7">．全通路操作策略</tspan><tspan x="0" y="105" class="st5 st6 st7">．創意策略及應用</tspan></text>
</g>
<g>
	<text transform="matrix(1 0 0 1 41.3826 518.5009)"><tspan x="0" y="0" class="st5 st6 st7">．FB / IG 內容經營</tspan><tspan x="0" y="35" class="st5 st6 st7">．部落客行銷</tspan><tspan x="0" y="70" class="st5 st6 st7">．直播主 / 網紅行銷</tspan><tspan x="0" y="105" class="st5 st6 st7">．KOL 意見領袖行銷</tspan></text>
</g>
<g>
	<text transform="matrix(1 0 0 1 39.3827 858.9132)"><tspan x="0" y="0" class="st5 st6 st7">．企業形象網站</tspan><tspan x="0" y="35" class="st5 st6 st7">．活動網站 / 網頁</tspan><tspan x="0" y="70" class="st5 st6 st7">．RWD 跨螢網站</tspan><tspan x="0" y="105" class="st5 st6 st7">．AWS 主機維運</tspan><tspan x="0" y="140" class="st5 st6 st7">．SEO(Search Engine</tspan><tspan x="0" y="175" class="st5 st6 st7 st8">	</tspan><tspan x="44.9" y="175" class="st5 st6 st7">      Optimization)</tspan></text>
</g>
<g>
	<text transform="matrix(1 0 0 1 322.8605 845.5232)"><tspan x="0" y="0" class="st5 st6 st7">．AR / VR 創意製作</tspan><tspan x="0" y="35" class="st5 st6 st7">．FB / IG 濾鏡製作</tspan><tspan x="0" y="70" class="st5 st6 st7">．客製短 網</tspan><tspan x="127" y="70" class="st5 st6 st7 st9">址服務</tspan><tspan x="0" y="105" class="st5 st6 st7">．圖像辨識</tspan><tspan x="0" y="140" class="st5 st6 st7">．Chatbot 對話機器人</tspan></text>
</g>
<g>
	<text transform="matrix(1 0 0 1 322.4053 1091.5547)"><tspan x="0" y="0" class="st5 st6 st7">．Google &amp; Youtube</tspan><tspan x="0" y="35" class="st5 st6 st7">．Facebook &amp;  Instag</tspan><tspan x="0" y="70" class="st5 st6 st7">      ram</tspan><tspan x="0" y="105" class="st5 st6 st7">．LINE (LAP)</tspan><tspan x="0" y="140" class="st5 st6 st7">．聯播及影音廣告</tspan><tspan x="0" y="175" class="st5 st6 st7">．廣編及新聞廣告</tspan><tspan x="0" y="210" class="st5 st6 st7">．關鍵字廣告</tspan><tspan x="0" y="245" class="st5 st6 st7">．媒體策略、成效</tspan><tspan x="195.2" y="245" class="st5 st6 st7 st9">優化及</tspan><tspan x="0" y="280" class="st5 st6 st7">    </tspan><tspan x="22.4" y="280" class="st5 st6 st7"> 追蹤</tspan></text>
</g>
<g>
	<text transform="matrix(1 0 0 1 322.089 525.6268)"><tspan x="0" y="0" class="st5 st6 st7">．品牌審視</tspan><tspan x="0" y="35" class="st5 st6 st7">．品牌設計</tspan><tspan x="0" y="70" class="st5 st6 st7">．品牌系統建立</tspan></text>
</g>
<path class="st0" d="M63.4,32.2c0,2,0,150.1,0,150.1L303,148.7v-95L63.4,32.2z"/>
<text transform="matrix(1 0 0 1 50.5582 48.0096)"><tspan x="0" y="0" class="st1 st2">CREATIVE</tspan><tspan x="0" y="34" class="st1 st2">EXECUTIVE</tspan><tspan x="0" y="68" class="st1 st2">PRODUCTION</tspan></text>
<g>
	<text transform="matrix(1 0 0 1 53.5573 152.7415)" class="st3 st4">創意執行製作</text>
</g>
<text transform="matrix(1 0 0 1 41.5572 215.6021)"><tspan x="0" y="0" class="st5 st6 st7">．短影片 / TVCF 廣告影片</tspan><tspan x="0" y="35" class="st5 st6 st7">．腳本發想 / 拍攝 / 後製</tspan><tspan x="0" y="70" class="st5 st6 st7">．產品攝影 / 人物攝影</tspan><tspan x="0" y="105" class="st5 st6 st7">．媒體素材製作</tspan></text>
</svg>
