<?xml version="1.0" encoding="utf-8"?>
<!-- Generator: Adobe Illustrator 24.1.3, SVG Export Plug-In . SVG Version: 6.00 Build 0)  -->
<svg version="1.1" id="Layer_1" xmlns="http://www.w3.org/2000/svg" xmlns:xlink="http://www.w3.org/1999/xlink" x="0px" y="0px"
	 viewBox="0 0 942.2 132.9" style="enable-background:new 0 0 942.2 132.9;" xml:space="preserve">
<g>
	<defs>
		<path id="SVGID_1_" d="M86.8,50.8h-51v8.7h64.4V48.4h7.8v-8h-7.8v-11H36.3v8.6h50.5v2.3H28.9v8h57.8L86.8,50.8L86.8,50.8z
			 M27.2,75.6l0.8,10c10.4-0.5,24.6-1,38.2-1.8l0.1-9.5l-13.6,0.5v-4h12.5v-9.2H28.4v9.2h11.5v4.4C35.2,75.4,30.8,75.5,27.2,75.6z
			 M93.8,83.3h13.8V61.6H69v21.8h11.3v3.5H25.6v11.1h19.1l-3.1,2.5c4.2,3.2,9.5,7.9,11.6,11.2l9.9-8.3c-1.3-1.7-3.4-3.6-5.6-5.4
			h22.8v5c0,1.1-0.5,1.3-1.9,1.4c-1.4,0-6.7,0-10.4-0.2c1.7,3.3,3.7,8.4,4.2,12c6.7,0,11.9-0.1,16.1-1.9c4.3-1.8,5.4-5,5.4-11v-5.3
			h18V86.8h-18L93.8,83.3L93.8,83.3L93.8,83.3z M81.6,74.9V70h12.5v4.9H81.6z M151.6,66.1c-2.9,0.7-5.8,1.4-8.7,2.1V56.8h9.4V44.2
			h-9.4V26.9h-13.3v17.3h-10.7v12.6h10.7v14.4c-4.4,0.9-8.4,1.7-11.9,2.3l3.4,13l8.5-2.1v16.9c0,1.3-0.5,1.8-1.8,1.8
			c-1.2,0-5.1,0-8.4-0.1c1.6,3.4,3.3,8.8,3.7,12.3c6.8,0,11.6-0.4,15.2-2.4c3.6-2,4.6-5.3,4.6-11.5V81.3c3.5-0.8,6.9-1.8,10.3-2.6
			L151.6,66.1z M196.1,84.7c-0.5,9.9-1.5,14.3-3.5,14c-2.7-0.5-5-2.5-6.9-5.9c7-7.7,13-16.5,17.1-25.4l-11.2-6.8
			c-2.7,6.1-6.4,12.2-10.9,17.7c-1-4.8-1.9-10.3-2.4-16.5l28.2-2.8l-1.3-12.7l-13.4,1.2l9.9-6.7c-2.9-3.7-8.7-9.6-12.6-13.7
			l-10.4,6.7c3.7,4.2,8.7,10,11.5,13.9l-12.8,1.1c-0.4-6.7-0.6-13.8-0.6-21.3h-14c0.2,8.1,0.5,15.6,0.9,22.6l-10.4,0.9l1.3,13
			l10.1-1c0.9,10.4,2.4,19.4,4.7,26.8c-6.3,5.3-13.4,9.8-21,12.7c3.9,2.7,8.4,7,11,10.5c5.4-2.6,10.7-6.1,15.7-10
			c4.3,7,10.3,11.2,18.4,12.1c5.5,0.6,11.4-3.6,14.1-22.3C204.8,91.5,198.7,87.8,196.1,84.7z M297.1,77.5l-8.4-3.1l-2.3,0.4h-27.6
			V85h6.3l-4.8,1.3c2.2,4.8,4.9,9.1,8,12.9c-3.6,2.6-7.6,4.7-12,6.2V72.6h42.3V61.9H214v10.7h6.9v26.7l-7.8,0.6l0.9,11.6
			c8.4-0.8,18.9-1.9,29.5-2.9v7.5h12.7v-9.5c2.3,2.6,5.2,6.8,6.5,9.7c5.5-2.2,10.5-5,15-8.4c4.5,3.2,9.8,5.6,15.8,7.4
			c1.7-3.2,5.3-8.2,8-10.6c-5.5-1.2-10.5-3.2-14.8-5.6C291.3,93.2,294.8,86.1,297.1,77.5z M243.6,97.5L233,98.4v-2.7h10.6V97.5z
			 M243.6,86.4H233v-2.3h10.6V86.4z M243.6,74.9H233v-2.3h10.6V74.9z M276.7,91.3c-1.8-2-3.4-4-4.6-6.3h8.6
			C279.6,87.3,278.2,89.3,276.7,91.3z M240.3,59.1h30.9v-7.7h-30.9V59.1z M271.2,41.3h-30.9V49h30.9V41.3z M238,39.1h35.8v20.9h13.7
			V29.9H225v30.1h13V39.1z M356.6,56.8h-22.1v12.9h58.8V56.8h-22.7V49H389V36.3h-18.5v-9.4h-13.9v9.4h-17.9V49h17.9L356.6,56.8
			L356.6,56.8z M324.7,27.3c-4.5,13-12.3,25.9-20.4,34.1c2.3,3.4,5.8,11,7,14.3c1.4-1.5,2.7-3,4.1-4.7V116H329V50
			c3.3-6.2,6.1-12.6,8.4-18.7L324.7,27.3z M370.5,91.5h20.5V78.6h-20.5v-6.8h-13.9v6.8h-19.8v12.9h19.8v8.7h-24.8v13.1h63v-13.1
			h-24.3L370.5,91.5L370.5,91.5z M474.7,90.4c4.2-9.7,6.6-21.2,8-34.9h5.9V43.6h-22.1c0.8-5,1.5-10.1,2.1-15.3l-11.3-1.5
			c-1.3,16-4,31.7-9.7,42v-6.1h-16.6v-2h14.6v-9.7h6.6v-9.5h-6.6v-9.4h-14.6v-5.3h-10v5.3h-14v9.4h-7.6v9.5h7.6v9.7h14v2h-16.5v17.9
			h13.1c-0.8,1.7-1.8,3.4-2.8,5c-5.2,0.3-9.9,0.5-14,0.6l0.9,8.8l7-0.4c-1.3,1.9-2.6,3.7-3.9,5.2c3.6,1,7.3,2.3,11.1,3.7
			c-4.8,1.2-10.7,2.3-18,3.1c1.8,2.3,4,6.1,4.9,8.6c11.5-1.4,20-3.6,26.4-6.2c4.8,2.3,9.1,4.5,12.4,6.6l6.6-5.4
			c1.6,2.3,3.1,4.8,3.8,6.4c6.9-4.1,12.4-9.1,16.7-15.1c3.5,5.3,7.8,9.8,13,13.2c1.6-2.9,5-7.1,7.5-9.2
			C483.1,101.9,478.4,96.8,474.7,90.4z M431.1,40.5h2.9v1.9h-2.9V40.5z M431.1,50.4h2.9v2.1h-2.9V50.4z M431.1,70.8h4.9v2.1h-4.9
			V70.8z M418.1,40.5h2.9v1.9h-2.9V40.5z M418.1,52.5v-2.1h2.9v2.1L418.1,52.5L418.1,52.5z M415.6,72.8v-2.1h5.4v2.1H415.6z
			 M428.7,98.5c-2.7-1-5.5-2.1-8.2-3l1-1.5l12.7-0.8C433.3,95.1,431.5,96.9,428.7,98.5z M446,106.1c-2.1-1-4.3-2.1-6.7-3.1
			c3.8-3.3,5.8-6.9,6.7-10.3l2.5-0.2l0.1-8.4l-2.1,0.1v-2.1h-10.5v2.5l-9.1,0.5c0.8-1.5,1.7-3,2.4-4.5h18.3v-9.1
			c2.4,2.2,5.8,5.8,7.2,7.8c1-1.6,2-3.4,2.8-5.3c1.3,5.6,2.9,10.9,4.9,15.7C458.8,96.7,453.4,102.1,446,106.1z M468.4,74.8
			c-1.7-6-3-12.5-3.9-19.3h7C470.8,62.5,469.9,69,468.4,74.8z M524.7,42v13.2H578V42h-27.7l9.5-2.6c-1-3.9-3-9.8-4.8-14.3l-13,3.2
			c1.4,4.2,3.2,9.8,4,13.7C546,42,524.7,42,524.7,42z M534.9,97.7l13.4-3.8c-0.9-9.5-3.6-25.2-6.2-37.2l-12.3,2.8
			C532.1,71.9,534.2,87.9,534.9,97.7z M575.4,58.8l-14.3-2.2c-1,13.4-3.9,30.7-6.9,42.7h-32.7v13.1h59.2V99.3h-14.1
			C569.9,88,573.2,72.7,575.4,58.8z M513.8,27.3c-4.5,13-12.3,25.9-20.4,34.1c2.3,3.4,5.9,11,7.1,14.4c1.3-1.4,2.7-3,4-4.7v45h13.8
			V49.6c3.2-6,6-12.2,8.3-18.3L513.8,27.3z M666,72.1h-7.2c0.9-1.5,1.8-3.1,2.6-4.7l-8.4-1.5c10.1-6.6,17.6-16,21.7-29.9l-8.7-3.4
			l-2.4,0.4h-7.5c0.8-1.2,1.4-2.4,2.1-3.8L645.7,27c-2.7,5.9-7.8,12.2-15.3,17.2V30.5h-39.9v38.9h13V74H589v11.9h11
			c-3.7,5.5-8.8,11.2-14,14.7c2,3.7,4.8,9.6,5.9,13.5c4.3-3.3,8.3-8.2,11.7-13.6V116h13.3V97.7c2.9,3.5,5.8,7,7.6,9.6l7.8-11.3
			c-1.8-1.7-8.4-6.8-13.2-10.1h11.8c2.3,2.2,4.7,5.2,5.9,7.2c1-0.6,2.1-1.2,3-1.9c2.2,2.3,4.3,5,5.9,7.2c-5.1,3.1-10.9,5.4-17.6,6.8
			c2.5,2.7,5.6,8,7,11.4c21.5-6.3,35.9-18.2,42-42l-8.7-3L666,72.1z M630.4,48.1c2.3,1.9,4.5,4.3,5.8,6.2c1.1-0.8,2.2-1.5,3.2-2.3
			c1.7,1.8,3.4,3.7,4.7,5.4c-4.1,2.7-8.7,4.8-13.7,6.3V48.1z M615,41.2h3.9V45H615V41.2z M605.5,58.7h-3.9v-3.8h3.9V58.7z M605.5,45
			h-3.9v-3.8h3.9V45z M615,58.7v-3.8h3.9v3.8H615z M631.3,82.8V74h-14.4v-4.6h13.5v-3.7c2.1,2.4,4.3,5.7,5.6,8.2
			c3.5-1.1,6.8-2.4,9.9-3.9C642.7,74.5,637.9,79.1,631.3,82.8z M648.6,43.5h8.9c-1.3,2.3-2.8,4.3-4.5,6.3c-1.6-1.8-3.5-3.7-5.3-5.3
			L648.6,43.5z M655.1,90.5c-1.8-2.2-3.9-4.4-6-6.4l1-1h9.9C658.7,85.8,657,88.2,655.1,90.5z M767.4,34.8l-12.2-3.5
			c-2.1,6.6-5.4,14.5-8.2,19.6c3.1,1.2,8.6,3.4,11.4,5.2C760.9,50.8,764.8,41.9,767.4,34.8z M745.4,69.5h19.7V56.8h-19.7V26.9h-13.7
			v29.8h-19.9v12.7h19.9v9H708V91h23.7v25.1h13.7V91h23.5V78.5h-23.5V69.5z M730.9,49.9c-2.7-5.2-8.1-13-12.8-19.1L708,35.9
			c0.7-1.8,1.2-3.6,1.8-5.3l-12.6-3.8c-3.8,13.3-10.5,26.7-17.7,35.2c2.1,3.7,5.3,11.6,6.4,15c1.3-1.6,2.6-3.3,3.9-5.1V116h13V48.9
			c1.9-4,3.6-8.3,5.1-12.4c4.3,6.2,9.7,14.5,12,19.7L730.9,49.9z M835.8,86.6l-8,2.3c1.9,5.3,3.5,12.4,3.7,17l8.5-2.5
			C839.5,98.8,837.9,91.9,835.8,86.6z M843.5,70h14V59.6h-14v-3.7h14V45.5h-14V42h17.1V30.3h-50V85h39.9c-0.2,5.1-0.5,8.8-0.8,11.6
			c-0.9-3.5-2.6-7.9-4.5-11.4l-7.1,2.3c2,4.1,3.8,9.7,4.4,13.3l6.9-2.4c-0.4,2.8-0.8,4.4-1.3,5.1c-0.8,1-1.5,1.2-2.6,1.2
			c-1.3,0-3.4,0-5.8-0.3c1.7,3.1,2.9,8,3.1,11.5c3.8,0,7.2-0.1,9.5-0.6c2.5-0.5,4.5-1.3,6.5-3.8c2.3-3.2,3.4-12.1,4.2-33.3
			c0.1-1.4,0.2-4.6,0.2-4.6h-19.6L843.5,70L843.5,70L843.5,70z M831,73.8h-7.7V70h7.7V73.8z M831,59.6h-7.7v-3.7h7.7V59.6z
			 M831,45.5h-7.7V42h7.7V45.5z M806.2,34.8h-28.3v63h12v-7.1h16.3V34.8z M794,78.1h-4.1V47.4h4.1V78.1z M817.4,89.5
			c1.2,6.3,1.9,14.5,1.5,19.7l9.2-1.5c0.2-5.3-0.6-13.3-2-19.6L817.4,89.5z M800.3,108.8l9.8,4.7c3.8-5.7,5.5-14.9,6.6-23.2
			l-9.9-2.8C805.8,95.3,803.7,103.4,800.3,108.8z M897.6,87.7c-6.5,0-11.1,4.2-11.1,10.2c0,6,4.6,10.4,11.1,10.4
			c6.5,0,11.1-4.4,11.1-10.4C908.7,91.9,904.1,87.7,897.6,87.7z M899,35.9c-10,0-18.8,4.7-24.6,11.8l9.2,8.4
			c3.8-4.3,8.1-6.8,13.4-6.8c6.2,0,10.6,2.3,10.6,7.5c0,8.3-18.8,11.1-17.3,25.3H905c-0.8-12.4,18.6-13.3,18.6-26.8
			C923.5,42,912.8,35.9,899,35.9z"/>
	</defs>
	<use xlink:href="#SVGID_1_"  style="overflow:visible;"/>
	<clipPath id="SVGID_2_">
		<use xlink:href="#SVGID_1_"  style="overflow:visible;"/>
	</clipPath>
</g>
</svg>
