<svg xmlns="http://www.w3.org/2000/svg" viewBox="0 0 357.45 155.66"><defs><style>.cls-1{fill:#231916;}.cls-2{fill:#f9be00;}</style></defs><g id="Layer_2" data-name="Layer 2"><g id="Layer_1-2" data-name="Layer 1"><path class="cls-1" d="M8.92,50.8a38.78,38.78,0,0,0-4.81,7.35,41.45,41.45,0,0,0-3,8.31,38.57,38.57,0,0,0,0,18.21,42.37,42.37,0,0,0,3,8.33,38,38,0,0,0,11.12,13.28l2.08,1.58V43.08l-2.1,1.63A42.18,42.18,0,0,0,8.92,50.8Z"/><path class="cls-1" d="M322.57,50.8a38.3,38.3,0,0,1,4.81,7.35,40.81,40.81,0,0,1,3,8.31,37.9,37.9,0,0,1,0,18.21,42.34,42.34,0,0,1-3,8.33,37.63,37.63,0,0,1-4.81,7.3,38.86,38.86,0,0,1-6.31,6l-2.08,1.58V43.08l2.1,1.63A42.67,42.67,0,0,1,322.57,50.8Z"/><path class="cls-1" d="M351.4,59.91a5.82,5.82,0,0,0-4.25,1.74,6.07,6.07,0,0,0,0,8.53,5.79,5.79,0,0,0,4.25,1.75,5.85,5.85,0,0,0,4.3-1.75,6.07,6.07,0,0,0,0-8.53A5.88,5.88,0,0,0,351.4,59.91Z"/><path class="cls-1" d="M351.4,79a6,6,0,0,0-6,6,5.78,5.78,0,0,0,1.75,4.26A5.85,5.85,0,0,0,351.4,91a5.91,5.91,0,0,0,4.3-1.77A6,6,0,0,0,351.4,79Z"/><path class="cls-2" d="M125.81,76.35c0,23.9,17.84,42.61,40.63,42.61s40.8-18.71,40.8-42.61V0H192.06V45.06a36.33,36.33,0,0,0-25.77-11C143.58,34.05,125.81,52.61,125.81,76.35Zm15.63,0c0-15.29,11.23-27.73,25-27.73s25.14,12.44,25.14,27.73c0,15.47-11.29,28.05-25.14,28.05C152.43,104.4,141.44,92.07,141.44,76.35Z"/><path class="cls-1" d="M99.46,90.77c-4.92,9-12.37,13.32-22.72,13.32A25.41,25.41,0,0,1,56.08,93.71l59.67-25.26-.25-1.08C111.12,47.74,94.85,34.05,76,34.05c-22.49,0-40.79,19.11-40.79,42.61,0,23.72,18.25,42.3,41.56,42.3,18.54,0,32.21-9.61,38.56-27.08l.68-1.8H99.84ZM50.82,76.5c0-17,13.06-27.58,25.15-27.58,8,0,15.68,4.51,20.42,11.88L51,79.91A28.82,28.82,0,0,1,50.82,76.5Z"/><path class="cls-1" d="M257,34.05c-22.89,0-40.79,18.71-40.79,42.61s17.78,42.46,40.47,42.46a34.27,34.27,0,0,0,25.46-10.73v3.75c0,13.69-6.88,28.32-26.22,28.32-3.84,0-16.9-.9-22-12.58l-.36-.81H217.16l.44,1.69c4.21,16.33,19.24,26.9,38.29,26.9,25,0,41.71-17.5,41.71-43.52V76.66C297.6,52.76,279.76,34.05,257,34.05Zm0,70.35c-14.11,0-25.17-12.18-25.17-27.74s11.32-28,25.17-28,25.14,12.58,25.14,28C282.11,91.94,270.83,104.4,257,104.4Z"/></g></g></svg>